<svg xmlns="http://www.w3.org/2000/svg" id="Layer_1" version="1.1" viewBox="0 0 1181.2 661.5"><defs><style>.st0{fill:none;stroke:#000;stroke-linecap:round;stroke-linejoin:round;stroke-width:5px}</style></defs><path d="M1143.8 49.4c-5.6 2-10.5 4.8-14.8 9.2-2.8 2.9-6.8 4.8-10 7.6-1.9 1.7-2.4 4.7-5.2 5.4 0 0-.2-.2-.2.2 0 6.7-6 9.5-9.4 14-2.8 3.8-6.2 6.8-9.1 10.4-2.3 2.9-6 3.9-8.3 6.7-1.1 1.3-2.8.3-4.1 0-3.4-.8-5.8.4-7.2 3.8-1.4 3.6-3.7 5.6-7.7 7.1-3.7 1.4-7.6 5-8.8 9.1-.8 2.7-1.9 4.5-3.7 6.3-1 1-2.1 1.9-2.2 3.4m-670.2-4.9c-.7.5-.4 1.3-.3 1.9 0 1-.2 1.9-1.2 2.2-.9.3-2 0-2.6-.7-1.2-1.4-2.3-3-3.3-4.5-1.3-2.1-2.9-1.8-4.2-.6-2.7 2.4-5.2 5-8.6 6.4-2.2.9-3 3.3-3.4 5.5-1.5 7.9 2.8 15.4 10.5 17.9 1.9.6 2.6 1.9 2.9 3.4 1 4.6 2.2 9.1 4.1 13.5 1 2.2-.1 4.5-1.3 6.7-2.9 5.4-3.5 11.7-2.2 18.4 9.1-1.6 16.2 4.8 24.7 6.2 3.8.7 7.3 1.7 9.7 4.9.8 1 1.7.7 2.6.7 5.2 0 10.5-.6 15.4 2.2 1 .6 2.9.4 4.4-.9-2.2-2.9-1.6-6.4-2-9.8-.1-1.5.3-1.4 1.3-1.5m342.7 295.6c.8 2.1.3 4.3.3 6.4s.5 3.6 2.9 4.3c2.6-2.1 5.2-4.2 8.8-5.2 3.7-1 7-1.6 10.6.1 1.3.6 2.7.5 4.1 0 5.4-1.7 10.8-2.3 16.1.3.4.2 1 .1 1.5 0 4.7-.9 8.3 1.5 12 3.8 1.6 1 3.3 1.6 5.3 1.5h3.4c5.4-.3 10.7 0 15.7 1.9 1.2.5 2.5.3 3.8.4 2.1 0 3.9.4 4.9 2.6.9 1.9 2.3 1.8 4.1.8 2.4-1.3 5.2-1.3 7.8-1.6m3-2.6c-1.9 1.6-3.2 3.3-2.6 6 0 .5.2 1.1-.3 1.5-2.5 1.9-1.8 4.2-1.2 6.7.6 2.4.7 4.9.2 7.5-.5 2.4-.8 5.2 1 7.5.8.9.4 2.1.3 3-.4 3.3-2.1 6.3-1.5 9.8 0 .6-1.3 1-1.5 2 2.1 1.5 1.7 4.1 2.6 6.3.9 2.3 2.3 3.9 4.6 4.4 2.5.6 4.5 2.1 5.1 4.2 1.8 5.7 7 6.5 11.4 8.6 2 .9 4.3 1.3 5.3 3.7.4.8 1.1 1.6 2.6 1.6s3.5 1.1 4.5 2.9c.3.5.4 1.4 1.1 1.5 4.3.5 3.4 3.7 3.4 6.4s0 5.6-1.6 8.4c-1.1 1.7-.8 4.7-.5 7.2 1.9 1.2 3.7.3 5.5-.6M718.5 405.7c-.5.4-1.1.9-1.1 1.5 0 7.3-4 14.5-2 21.7 1.1 4.1 2 8 1.5 12-.4 3.8-1.2 7.8-4 10.9-1.2 1.3-1.8 2.8 0 4.1 2.7 2 4.5 4.2 3.5 7.9-.2.7.2 2.6 1.7 3.4 1.8.9 3.1 0 4.1-1.2 1.5-1.8 3.3-1.9 5.3-1.8h13.1c1.1 0 2.1 0 3 .8M1011 153.2c-1.1 5.1-3.6 9-8.1 12.3-2.6 1.9-4.4 5.6-6.2 8.7-.9 1.5-1.5 2.8-3.7 3.6-3.9 1.4-3.6 5.8-4.6 9.2-1.2 4.4-.7 9.3-3 13.5M373.1 468.6c-.4-1.8-2.2-1.5-3-1.4-2.4.3-4-.6-5.7-2-2-1.7-4-2.6-6.8-.5-2.2 1.7-5.7 1.7-8.1.4-2.7-1.5-5.3-.6-8-.9-1.2-.1-1.6 1-1.8 1.8-1.8 6.7-6.9 7-12.4 6.3-2.8-.4-5-2.5-7.9-3m456.7-134.4c-1.6-1.7-.6-3.1 0-4.9 2.4-5.5 7.4-6.6 12.5-7.3 2-.3 4.2.2 6.4.8 5.7 1.4 11.6 2.2 17.6 2.4 4.2.2 6.8 2.7 7.2 6.8.3 4 .8 8.2 1.9 11.9.8 2.8.7 6.2 3 9 1 1.2.9 4.7 1.9 6.9 1.4 3.3.5 6.9 1.8 10.1.6 1.5.4 2.8-.7 4.2-.7 1-1.5 2.2-1.2 3.7.2 1.2-.5 2.1-1.5 2.6-2.9 1.3-4.6 3.6-5.6 6.4-.3.9-.9 1.4-1.6 1.8-4.4 2.8-5.2 6.9-4.5 11.6M529.5 164.8c.4 2.6-.7 4.6-3.4 4.4-3.4-.3-6 2.5-9.4 1.6-.4-.1-.9-.1-1.1.4-2 3.8-5.7 5.6-9.4 5.8-5.8.4-11.4 2.3-17.2 1.9-1.4-.1-2.7-1.8-4.5-1-.6.3-.2.6-.4.8M345.8 401.5c-1.9-.7-3.2.7-4.5 1.5-6.2 4-12.1 1.4-18-.8-4.2-1.6-8.2-4-12.7-3.6-4.6.4-13.7-2.7-18.1-3.2m384 9.9c-2.3-1.4-1.7-4.8-4.1-6-.6-.3-.5-1.3-1.5-1.1-3.5.6-6.5-2.4-10.1-1.5-1.5.4-1.9-1.2-3-1.5-6.2-2.2-12.4-4.1-19.1-3.8-2.9.1-3.9 2-4.8 3.9-1.7 3.7-1.4 7.7-1.1 11.6.2 3.5 3.5 3.2 5.8 4.1.9 2.3-.6 3.6-2.2 5 2.1 3.1 1.1 6.6 1.2 10 0 2.2 0 4.2 2.2 5.7 2.4 1.6 2.8 4.7 4.2 7m-67.2 123.2c-1 1.6-2 3.2-3.8 4.3-1.8-.8-3.7-.8-5.6-.9-4.6-.4-7.6 1-9.3 5.6-1.2 3.3-3.5 3.7-6.5 1.9-2.5-1.5-5.5-.7-8.2-1.5-4.7-1.4-8.6 2.1-13.1 2.2-.5 0-.2-.4-.3 0-1.6 4.2-6.3 3.6-9 6-.7.6-1.5.9-1.6 2.2-.2 5.9 0 11.7 2.7 17.2.6 1.4 1.2 2.7.4 4.1M132 78.5c3.3 4.1 7.9 6.7 11.7 10.3 2.3 2.2 8.9 1.7 10.4-.8 2.1-3.5 5-4 8.3-2.9 3 1 13 5.8 16.1 5.8m721.9 176.9c1.3 5.6-.2 10.7-2.6 15.7-1.2 2.5-2.7 4.9-1.3 7.9 3.7 1.2 5.7 2.7 6 4.5 5.4 5.4 10.7 1.7 15.9 1.3.3 0 2.5.1 1.7-1.8m-479.9 29.4c0 .7-.2 1.5 0 2.2 1.1 4.1-1.6 7.3-2.7 10.9-.6 1.8-.2 3.4.8 4.9 2.3 3.3 3.7 7.3 7.5 9.4 2 1.1 4 2.3 6.4 2.2 2.4 0 3.8.8 2.6 3.4-1 2.2-.2 3.9 1.6 4.8 3.6 1.8 6.4 5.3 10.8 5.3s1.5.5 1.9 1.1c1.7 3.1 5.1 4.2 7.5 6.4m1.5-275.4c-8.9-.2-17.9-.3-26.6-2.1-4.1-.9-8.8-.7-12.4-3.5m601.1 50.2c-.8 4.4-.6 8.8-2 13.2-.4 1.2.8 3.8.8 5.9v18.4c0 1.1 0 2.2.3 3.4 2.1 5.7-1.8 11.3-5.6 13.4-2.8 1.5-3.3 3.8-2.8 6.1.4 2 1 3.9-.2 5.6-.5.7 0 1 0 1.2 2.8 6.8-.3 12.9-2.2 19.1-.3.9-.7.6-1.2.7" class="st0"/><path d="M1030.1 210.5c-5.4.6-10.5 2.9-15.8 4.1-.7.2-1 .7-1.5 1.2-2.9 2.7-6.5 4.2-9.7 6.4-5.7 3.8-10.9 5.5-18 6-1.6.1-3.1 1.5-4.9 1.1m-153-12.4c-.3-3.4-3.2-5.8-7.9-5.5-2.9.2-5.7-.8-7.8-1.9-5.7-2.9-10.6-2-15.1.8-1.2 5 1.1 9.7-2.1 14.1-.9 1.3-1.4 1.8-2.8 1.8-2.6 0-3.8 1.3-4.2 3.7-.7 4.7-4.1 7.7-7.2 10.8-2.4 2.4-4.8 5.3-8.9 4.6-.8-.1-1.4-.6-2.2-.4M109.1 239c-4.7-.4-7.2 2.9-9.7 6-.5.6-.3 2.1.3 2.9 1.4 1.8 1.9 3.5 0 5.2-.5.5-.5 1.1-.3 1.5 1.7 5.3-1.7 10.9 1.1 16.1.6 1.2.5 2.3.3 3.4-.6 3.3 1.7 5.3 3.6 7 1.1 1 1.7 1.6 1.8 3.1.2 3.4 2.5 5.7 4.8 7.9M1146.4 49.4c1.7 1.6 3.1 3.2 6 3.6 2.4.4 4.9 2.5 5 6.1 0 4.3 2.8 7.1 6.4 8.9 2 1 4.2-.5 5.9-1.2 3-1.3 5.6-1 8.3 0 1.2.4 2.3.2 3.4 0M507.8 254.7c1.1 1-.1 2 0 3 .1 1.6 0 3.2 2.3 3 .4 0 .7.5 1.1.8 4.8 3.1 9.9 4.1 15.8 4.1s9.1 3.2 13.1 6m142.4 187.6c-.2 1.5 1.6 1.4 1.9 1.4 4.5-.3 9 .2 13.1 2 6.1 2.7 12.5.9 18.8 1.4m-3-224.2c-.8.9-5.8 5.4-7.2 5.3-2.6-.2-4.7.2-7 2.3-1.3 1.2-4.7 4.2-7.7 1.1-.3-.3-1.4-.3-1.8 0-1.9 1.6-4.4 1.4-6.4 2.3-2.5 1.1-5.7 1.5-6.9 4.7-.2.5-1.9 1.5-2.9 1.1-2.3-.9-4.3.5-6.4.4M550.9 100.9c-12.2-1-29.4 1.9-41.7 1M313.5 82.6c2.3.3 4.3 1.5 5.5 3.2 2.7 3.8 6.8 3.9 10.6 4.8.5 0 1.2-.2 1.5 0 2.4 2.4 4.8 4.7 8.3 5.7.9.2 1.2 1.4 1.2 2.6-.2 4.8 3.1 8.3 4.9 12.3.7 1.6 2.8 2 4.4 2.6 4.7 1.7 7.9 4.8 9.8 9.4.7 1.7 1.9 3.1 3 4.5m379.4 233c1.1 6.7-3.9 10.7-7.3 15.2-1.6 2.1-3.1 3.7-2.9 6.5 0 .6.4 1.4-.4 1.9-4.6 2.9-3.5 9.4-8.2 12.5-2.3 1.5-2.8 4.7-3.8 7.4 1.8 1.8 2.3 4.1 2.2 6.7v11.2c0 3.7.6 3.8 1.9 5.8 1.5 2.4 4.5 5.8 1.8 9.5-.5.7-.4 1.3-.3 1.9.8 4.8-1.8 8.6-4 12.2-1.2 2-1.2 3.5-.9 5.6-.8 1.2-2 2.1-3.4 2.8m3.6-101.4c0 2.4.8 4.8 2.7 5.8 1.3.7 3.4.3 5.1.7 1.2 2.1 0 3.9-.7 5.8-1.6 5.5-4.2 10.6-5.7 16.1-.3 1.3-1.1 2.6-2.5 3.4-2.9 1.6-3.9 4.2-3.4 7.5m-89.3-315c4.1 4.7 9.8 3.6 15 4 4.4.4 9.2 1.1 12.1 3.7 3.4 3 8 4.2 10.7 8 .8 1.1 2 1.5 3.4 1.5 2.2 0 3.6-.6 3.4-3-.6-5.6.4-11.2.2-16.9 0-4.7-1.6-8.2-4.7-11.2-.6-.6-.8-1.1-.7-1.9 0-6.9-4.2-10.2-10.1-12m131.6 405.4c3.5 3 5.8 7 6.5 11.3.5 3.4 2.1 3.9 4.7 4.1.7 0 1.3 0 2 .9 0 4.2 5.6 6.1 5.9 10.6 4.3 2.1 8.1 1.1 11.6-1.7 1.4-1.1 3-.8 4.5-1.2 3.5-.8 6.8-2.3 10.5-2.2M669.1 117.3c-.6-3.4-1.9-13.4-4.5-11.9-7.2 4-16.3 2.9-22.7 9.1-.7.7-7.9.9-9.6.3m-28.9 93.8c2.4 1.4 5 .5 7.5.7 1.4.1 2.7-.1 3.1 1.9.2 1.2 1.2 1.7 2.6 2 3.2.7 6.6.9 9.4 2.9.5.4 1.5.1 2.2 0 2.6-.4 4.4.5 5.3 3m394.4-10.1c-2.7-2.5-5.6-4.2-9.3-2.2-.6.3-1 0-1.1-.1-2.7-1.9-5.9-1.8-9-2.4-2.9-.6-5.9-2.6-8.3-5.4-4.1 4.9-8.9 5.7-14.3 2.7M637.5 355.1c-1.8 4.8-2.9 9.8-1.8 15 .5 2.3-1.4 3.7-2 5.6-.6 1.6-1.2 3.2-1 4.9.2 2.1 0 3.9-2.3 4.9-2 1-1.3 3.3-2.3 5 1.7 1.8 2.8 4.1 5.3 5.1m115.5-18c4.2 2 8.6 1 12.7.1 1.9-.4 3.6-1 5.7-1 3.7 0 7.5.9 11.2 0 2.1-.5 3.1.4 4.2 2.2 2.9 5 2.7 9.8-.9 14.2-1.1 1.3-1.3 2.6-1 3.8 1 3.2-.5 5.8-1 8.7-.7 3.4-1.3 7.1 0 10.6 1.3 4 3.4 7.7 3 12.2-.2 2.3 1.3 4.5 1.8 6.7" class="st0"/><path d="M790.5 464.8c-1.3 1.9-1.7 4.2-4 5.8-1.5 1-.6 4.4-2 6.6-1.3 2.1-2 4.3-4.1 6-2.9 2.3-3 5.8-2.6 9.2-2.8 1.5-5.6 2.5-8.7 1.9-1.5-.3-2.3.7-3.4 1.4-1.8 1.2-3.8 2.5-6.3 2M936 208.3c-1.3 2.5-4 4-4.9 6.7 0 .4-.5.9-1.1 1-3.2.3-4.9 2.9-7.3 4.4-3.6 2.3-6.8 5.2-11 6.8-5 1.9-9.5 5-14.4 7.2-3.7 1.7-7.8 2.5-11.3 4.9-1.8 1.3-3.2 2.9-4.8 4.2m-221.2 58c1.4 4.2 3.8 6.2 8.6 6.1 4.2 0 6 3.3 6.7 7.2-5.4 3-10.4-2-15.7-.6m-472.5-155c2.7 1.4 6.7 2.2 7.6 5 1 3.1 3.4 4.1 5.2 5.8 4.3 3.9 4.3 3.7 2.3 9.5-.6 1.8 4.5 8.3 4.5 10.3m321.6-51.9c-6.6-4.5-28.1-11.4-35.5-12-5.9-.5-12.1.5-17.6-2-7.6-3.5-15.7-5.5-23.7-7.8-4-1.2-7.8-3.1-12-3.3-1.7 0-2.6-1.5-3.3-2.6-1.6-2.7-3.9-5-5.3-7.8m297 303.3c.3.5-.6 1.2.7 1.6 4.8 1.4 8.1 5 11.6 8.2.7.7 1.1 1.5 2.3 1.7 1.1.2 1.9.6 2.3 2 1.4 5 3.9 9.7 4.1 15 0 1 .4 2.4-1.1 2.6-3.8.5-6.2 3.9-9.7 4.9m256.8-209.5c1.9-1 4.1-.8 6.2-1.7 3.6 4.3 9.5 7 7.3 14.9 4-1.2 7.1.5 10.5-.2 2.8-.6 6 1.4 9-.5m-461.7 158c1.5 1.3 2.1 3 1.9 4.9-.6 4.2 1.5 8.8-1.5 12.8-.2.3 0 .7.3 1.1 1.9 3.4.9 7.2 1.2 10.8m-186-300.4c1.7 1.5 2.5 3.7 4.1 5.3 1.4 1.3 1.6 3 1.5 4.9v6c0 4.9.1 4.5 4.8 6.1 2.6.9 5.7 1.4 7.6 4 1.3 1.7 2.9 2.9 5 3.6.9-1.3 4-1.1 3.6-3.9m-172.1 46.2c.2 2.2 2.1 1.7 3.4 2.2.5.2 1.2.1 1.9 0 6.7-.9 13.1 2.2 19.9 1.7 2.9-.2 6.1 2.1 8.4 3.5 3.9 2.5 6.7.3 9.5-.6 2.4-.7 5.1-1.8 7.2-3.5m814.5-130.6c-.4 3-.9 5.9-4.5 6.8-1.8.5-3 2.6-3.2 3.7-.9 5.7-5.8 7.8-9.3 11.1-.8.8-1.7 1.9-2.9 2.4M681.8 464.7c-.2.2-.6.3-.7.2-3.6-5.5-9.2-6-15-6s-5.8.1-8.6 0c-2.4-.1-4.5.4-6.4 1.9m287.5-252.5c2.7 5.2 4.5 10.8 4.5 16.5s0 6.4 1.7 8.9c1.5 2.3 2 4.8 2.9 7.2.3 1 .3 2 .3 3 0 4.9 2.6 6.8 7.5 5.2.6-.2 1.2-.4 2-.3 1.8 1.2 3.2 3.1 5.5 3.5M248.2 363.7h-.4c-1.7 3.8-5.4 6-7.7 9.2-3.4 4.6-6.4 9.9-6 16.3.1 2.2 2.5 3.6 1.6 5.6s-4 1.4-5.1 3.4c-1.2 2.2-3 3.8-4.6 4.9-6.8-1.5-13.2-2.8-18.7 2.6-.6.6-1.3.4-1.9.3-4.6-1-9.4-.8-13.9-2.2-1.6-.5-6.6-12-5.6-14M531 305.7c2.7 2.8 6.9 1.1 9.8 3.4 2.2 1.7 4.2 1.7 6.8.2 2-1.1 4.9.4 7.4 1 2.3.5 4.6 1 6.9 1.9 3.2 1.3 7.4 1.1 10.8-1.2m299.9-3.3c-1.3-1.7-23.6-1-25.9-.6-4.4.8-8.5-1.2-12.7-2-3.9-.7-7.8-.3-11.7-1.3-1.1-.3-1.9.6-2.6 1.1-1.5 1.2-4 1.3-4.8.6-2.9-2.8-5.8-1-7.9.3-2.7 1.7-11.1 6-13.5 8m-505.9-50.5c-1.8 0-3.3-.3-4.1-2.8-2.7 4.1-6.7 3.1-10.5 3.1-5.4 0-10.8-.2-16.1.4m319.4 199.4c-2.2 0-21.5-5.1-22.5-1.9-.2.8-1.1.8-1.8.8-5.4 0-11.1 1.1-16-.4-4.4-1.3-9.1 1.8-12.9-1.9m600-375.7c2.9 1.7 6.4 1.8 9.4 3.3.6.3 1.7.4 2.2 0 3.2-2.4 5.6-.8 7.5 1.6 3 4 7.4 6 11 9.3 2.8 2.5 5.1 5.1 4.8 9 0 .6.4 1.4.4 1.4 3.4.5 4.9 4.5 8.6 4.6 2.6 0 3.4 1 3.3 4.1 0 2.7.5 5.4-.2 8.3-.5 1.9.9 2.9 2.9 3 1.7 0 3.6-.5 5.3.3m-336.4 345c1.9 0 3.9-.4 4.5 2.2 0 .3.4.8 1.1.8 4 .2 6.6 3.5 10.1 4.9.8.3 1.5.2 2.3.3 3.9.2 5.2 1.4 6 5.6M605.8 375.7c.4 2.8.8 13.6 1 16.9-6.3 4.6-10.1 11.6-15.2 17.5-2.2 2.6-2 5.8-1.2 7.8 1.4 3.4.8 7 2 10.2m-64.8-289.9c7.8.1 15.3 3.2 23.3 2.4 2.1-.2 4.2-1.7 6.4-.5m83.9 34.5c-1.2-2.4-3.9-3.1-5.7-4.8-.8-.7-2.2-.8-2.9-.3-6.4 3.7-13.4 2.9-20.3 2.9s-9.7-1-14.6-.1c-2.1.4-4.4-1.1-6.7-1.6-4-.9-7.8-2.6-12-1.3-.8.3-1.5-.3-2.2-.4-3.2-.6-6.3-1.6-9.8-.8-5.1 1.2-9.9-.8-14.6-2.9-.8-.3-1.2-1.1-2.3-1.1h-21.5c-.9-.7-.6-2.3-.6-3.7M830.2 330c2.9 2.4 3.2 5.2 1.1 8.2-2.3 3.2-2 6.3 0 9.4 2.6 3.8 3.8 7.8 2.6 12.4-.2.6 0 1.3 0 1.9.5 4.2-1 7.4-4.5 9.7m163.2-143.5c1.7 2.7 2.5 5.4 1.2 8.7-.5 1.3-.2 3 .4 4.5 2 5 .2 8.7-5 10.4-.9.3-1.7.3-2.2 1.2-2.5 3.8-7.6 5.7-11.6 4.5M512.2 66.3c1.6 2.4 3.5 2.3 5.6.6 1.7 2.7 4.6 2.9 7 4.1 4.8 2.3 9.9 4.1 13.8 8.5 2.3 2.6 6.3 3.9 9.8 5.5 3.7 1.7 7.2 4.4 10.7 6.7 2.2 1.4 4.5 2.2 5.2 5m219.1 344.2c-3.2.6-6.4.9-8.8 4-1.2 1.6-4.1 1.3-6.5-.3-.8 5-4.9 6.9-8 9.7M657 256.2c-3.8 1-7.8-.4-11.6.7-.6.2-1.4 0-2.3-.3-5.3-2.3-10.3-.2-15.3 1.2-.8.2-1.5.7-2.3.3-3.9-2.2-8.4 0-12.4-1.8-.7-.3-16.1 14-16.8 14.4m-214.6-32c-4.3-2.8-26.6.5-30.7 3.2-2.5 1.7-5.1 1.9-7.5 0-1-.8-1.9-1.2-3-1-2.5.5-4.2-.5-5.7-2.6-2.2-3.2-5.3-2.1-8.2-1.2M720 467.8c1.1 3.2 2.7 5.8 6.4 6.8 2.7.7 2.5 3.6 3.5 5.6.5 1.1.5 2.6 1.8 2.9 2.9.8 3.2 2.9 3 5.3 0 .9 0 1.9.5 2.6 2.1 3.7 1.8 7.7 1.8 11.6s1.3 5.2 5.2 5.2 4.8.4 7.1-.7M449.2 154.7c3 2.2 4.2 5.8 7.4 8 3.9 2.7 6.9 6.6 8.6 11.1.8 2 3.7 2.8 2.7 5.6-1 2.9 0 6.3-2.2 9-1 1.3-1 3.5 0 4.7 2 2.4 2 5.2 1.2 7.5-1 3-2.8 16.2-1.5 18.6m153.7 167.7c-3.6 1-5.6 3.4-5.2 7.1.2 2.2-1 3.6-1.7 5.2-3.7 8.3-7.4 16.7-12.3 24.4-1.1 1.8-1.9 4-4.1 4.9m110.4-76.4c-.7-3.9-10.2-18.6-13.2-20.6-1.7-1.1-3.3 0-4.8.7-2.1 1.1-4.2 2.5-6.4 0-.7-.8-2-.6-3 0-4.5 2.3-8.5 5.4-11.5 9.4-1.8 2.4-1.9 5.9-4.2 8.2m-47-126.9c4.1 1.1 7.1 3.5 9.5 7 .8-.5 2.2-.2 3.6-.2 6.9-.3 13.7 0 20.6-.2 4.3-.2 8.7 0 13.1 0s5.9 1.4 8.6 2.6c5.1 2.3 10.3 1.4 15.4 1 1.8-.1 3.5-.9 5.3.1 1.1.6 2.5.3 3.7.2 4.4-.4 8.3 1.9 12.8 1.9s5.9 5.1 5.6 7.5c-.2 1.5 0 15.9-1.2 17.3m-337-202.4c-1-1-2.2-.6-3.4-.8-4.5-.9-8.7-2.4-12.8-4.3-5.6-2.6-11.5-2.2-17.2.2-2.2.9-3.3 2.7-4.5 4.5-.9 1.4-1.5 3-2.3 4.5m697.2 157.3c4 2.4 8.2.4 12.3.2.4 4 2.8 6.4 5.5 8.3 1.3.9 4 1.4 4.5-.7 1-4.2 3.3-3.6 6.1-2.6m-548 108.1c-3.1.8-16.3-.3-19.3-.5-6.9-.5-13.4-4.1-20.7-2-1.6.5-3.5.7-5.7-.2-2.9-1.2-6.3.8-8 2.8-2.2 2.8-4.9 5-7.5 7.2-4 3.5-6.1 8.2-9.3 12.1-.6.8-.9 1.2-.4 2.3.8 1.7-7.3 4.2-7.3 6.1m603.5-223.1c2.6.3 5-.2 7.1-1.8 2.7-2 5.8-2.3 9-1.6.8.2 1.8 0 2.6 0 2.5.4 5.4-1.1 7.5 1.5 2.5 3.1 4.5 6.4 4.5 10.5s-2.9 8.4-.8 8.8m-112.1 48.1c-3.6.6-7.9-.6-9.6 4.4 1 2.8 1.7 6 3.1 9.1 3-.8 4.3 2.4 5.6 3.9 2.7 3 6.5 4.4 9.3 7.2 1.9 1.9 3.6-1 5.6-1.1M709.1 336c-.8 2.4-1.1 8.1-.8 11.6 0 .9-.7 1.5-1.1 2.3-1.1 2.2 0 5.4 2.6 6.3 2.2.8 2.1 2.7 3 4.2" class="st0"/><path d="M562.1 138.2c-1.7-.2-3.3 0-4 1-.3 9.5.3 18.5-.5 27.5M663 155.8c2.7 1.8 4.8 4.3 7.3 6.2 2.9 2.3 6.5 3.9 10.1 5.3 1.4.6 2.6 1.2 2.9 2.4.7 2.8 2.6 4.6 4.7 6.3-2.2 2.9-7.6 4.1-10.9 2.7-4.8-2-9.7-1.7-14.6 0m-2.9-24.7c3.2-2.5 6.4-4.2 10.6-1.6 1.2.7 3.2.2 4.8.1 4.8-.2 9.4 1.3 13.9 2.7 1.5.5 3 .2 4.5.3m-67.9 313.8c-.4-3.4.2-6.9-1.5-10.1-1-1.9-.4-3.9 0-5.6.7-2.5-.4-3.7-2.4-3.7s-4-.9-5.6-2.4c-3.3-3-7.4-2-11.2-2.3-2.8-.2-5.2.6-7.5 2-1.7 1-.8 18.1-.3 20.3M310.1 127c2.8 1 4.8 3.2 7.1 4.9 3.8 2.6 7.9 2.5 12 .7.5-.2 1.1-.3 1.6-.6 2.5-1.9 5.4-2.6 8.6-2.3m522.7 280.5c-7.6-2-13.4 2-19.1 6.1-2 1.4-1.6 4-1.5 6.3m-226.1-88.1c-1-.6-2-.6-3 0-3.2 1.9-6.8 2-10.1 1-1.8-.5-3 .7-4.5.5-3.2-.4-6.4.4-9.8-.3-5.7-1.1-7.8 1.7-6.3 7.4m292.9 142c-3-3.1-6.8-8.2-10.7-9.4-.6-.2-1.2-.3-1.5-.8-1.9-4.2-6.1-4.9-9.8-6.4-1.1-.4-2.3-1-2.6-2.2-.9-3.5-3.7-5.2-6.4-7.1m-91-54.3c-1.1-.2-2.4.5-3.4-.7-2.3-2.8-5.6-2.5-8.6-2.6-5.2-.1-10.5-.4-15.7.3M452.6 297.8c5 2.2 10.1 3.8 12.8 9.3 2.2 4.4 8.8 6 13.4 3.7.5-.3 1-.4 1.5-.3 5.5 1 10.7-1.7 16.1-1.5 1.6 0 2.7-1.1 4.1-1.5m149.4 159.2c-.5 2.5-.7 5-.8 7.5-.2 3.2.6 5.7 3.8 6.7 2.6.8 1 3.1 1.8 4.6 1.5 2.8 3.5 5.4 3.1 9-.2 2 0 3.9-1.4 5.7-1 1.3-1.6 3.3-.5 5.2M761.2 236c0-1.2-.4-2.3-.8-3.4-1.8-5.8-3.3-6.6-9.4-5.7-3.4.5-6.7-1.1-10.1-1.3-2.1-.1-4.3.2-6.4.1-4.9 0-8-2.7-11.2-5.5-3.5-3.1-8-3.2-11.6 0m1.9 62.6c-.7 5.2 1.1 7.4 6 7.5h5c1.5 1.9 1.8 4 .6 6-.8 1.3 0 2.4 0 3.4 1.1 5.1 0 7.9-4.6 10.5-2.3 1.4-5.5 2.4-5.2 5.9 0 1.6.9 3.2.7 4.9m346.3-224c-6.1 4.1-9.1 11-14.5 15.8-2.6 2.3-4.2 5.7-6.8 8.1-.6.6-1.1 1.9-1 2.2 1.1 4.4-2.7 8.1-1.6 12.4.4 1.6-.8 2.6-1.5 3.7M801.8 328.9c1.4 2.5 1.7 4.6-.2 7.4-1.5 2.3-2.5 5.4-2.1 8.7.3 2.3.7 5-1 7.1-1.1 1.3.9 2.2.4 3.4M297.4 37.8c2.6 1.2 2.8 3.5 2.7 6-.1 2-.2 4 0 6 .1 1.4-.5 2.4-1.6 2.9-.7.3-2.1 0-2.5-.7-2.5-3.8-5.8-1.6-9-1.6-5.2 0-8.3 7.7-13 8.7m599.8 248.8c-.9 1.9-1.3 3.8-.8 6 .7 2.9-1.7 6.1-5.2 7.8-3.3 1.7-5.5 6.1-4.4 9.7.4 1.3 0 2.3 0 3.4-.6 4-1.2 5.2 3.8 6.4 4.8 1.1 9.9 1.4 13.9 4.8 1.4 1.2 3.5.3 5.2.4 3.9.3 7.6 2 11.7.5 1.5-.6 2.8.6 2.9 2.2 0 1.4 1.6 3.2-1.1 4.2-4.7 1.6-9.1 4-14.2 5.1-5.4 1.2-11.9 1.9-14.7 8.3-.6 1.4-12.8 5.5-14.1 6.3M557.6 531.5c-1.5 0-3.1-.3-4.5.7-.6.4-1.5.6-2.2.4-6-1.7-12-1.7-18 .3-2.4.8-5.2 0-7.8 0-4.7 0-5 0-9-2.2-.3-.2-.6-.4-1.1-.5-5-.4-7.4-4.5-10.4-7.5s-6.4-3.7-9.1-6.2c-.4-.4-1.5-.2-2.2.3m67.3-347.9c-.6 3.2-1 6.2 1.4 9 1.2 1.4 2.3 3 2.9 5.1.6 2.1 2.2 4.6 5.8 4.4 2.2-.1 4.3 1.7 6 3.5 3.8 4.1 9.2 5 14.3 5.8 3.2.5 4.5 1.8 5.1 4.4.3 1.3.3 2.4 1.9 2.6m126.1 58.1c.6 1.2 1.3 2.4 2.2 3.4.7.8 1 1.8.6 3.4-.8 3.2 1.9 5.7 2.9 8.5.4 1.2 1.4 2.3 2.2 3.4 1.7-.7 3.4-1.7 4.4-3.1 3-4.3 7.2-4.5 11.7-4.4.8 1.6 1.5 3.3 2.2 4.9.4.8.7 1.4 1.5 1.9 4 2.5 5 5.8 3.4 10.5-1.2 3.6-1.7 7.4-3.4 10.9-.6 1.2-1 2.1-2.6 2.7-2.6 1-4.6 3.2-4.9 6.2-.2 2.1-2.1 3.3-2.7 5.3-1.8-.7-3.7-1.1-5.6-.4M237.4 90.3c3.3 0 7.6 2.2 8.6 4.9.6 1.8 1.8 1.3 3.1 1.5 2.6.4 5.3-.8 8 1.3 1.9 1.5 2.3 2.8 2.6 5 .6 5.9-1.6 11.2-2.4 16.9-.2 1.3-1.1 2.4 0 3.8.5.6-.5.9-1.1 1.1m455.2 357.3c.6 7.1.6 14.2 0 21.3 0 .8-.5 1.7 0 2.2 3 3 1.9 6.2.4 9.8-4.1 0-7.8-1.2-10.6-4.9-2.9-3.7-5.9-7.4-11.2-7.9-1.4-.1-3.1 0-4.1.5-3.2 2-6.5 1.1-9.8 1.4-1.6.1-3.1-.5-4.6 1.1-1.3 1.4-2.9-.2-4.4-.4-2 .9-1.8 3.2-3.3 4.3 3.4 3.3 8.5 4.2 12.2 2.4 3.1-1.5 5.1-.8 7.5 1.8 1.9 2.1 3.3 5 6.7 5.3m167.4-10.7c0-1.2 0-2.4-1.1-3-2.9-1.5-4.7-3.9-5.9-7.2-6.1 3.4-12 1.3-17.6-.6-2.5-.8-4.5-2-7.2-.9-.8.3-2-.4-2.5-.8-2.8-2.1-5.9-3.5-9.1-4.8-1.1-.4-1.4-1.4-1.9-2.3M586.7 143.8c2.7 1.2 5.5 2.1 8.4 1.1.9-.4 2.1-.6 2.6-.2 4.5 2.9 8.8 1.7 13.2 0 1.8-.7 3.2-.3 4.9.7 4.3 2.4 8.7 4.6 13.8 3.8 4.8-.7 9.2 1.5 13.9 1.6 1.9 0 3.5-.2 4.5-1.9m-357 60.2c-1.3 5.5 20.1 10.6 20.8 15.6.1.8 1.2 2.2 2.9 1.9 3.2-.5 4 1.3 3.8 4.1-.1 1.2-.2 2.5.4 3.7m758.5-73c1.3 1.8 3.4 2.8 4.5 4.9.7 1.2 1.8 1.2 3 1.1 1.9 0 3.8.1 5.6 0 2.9-.3 4.2 1.2 4.5 3.8 0 1.1 0 2.3 1.2 3m-631.6 43.1c.8 1.8 2 3.2 3.8 4.1 1 .5 1.9 1.4 2.2 2.3 2.2 6.1 7.6 5.9 12.5 6.2 2.5.2 5.1.3 7.5 1 2.7.8 10.2-.1 12.7-1m-22.5 148.8c1.9 2.1 2.6 5 2.8 7.5.3 3.6 2.3 5.3 5.1 6.7 1.9.9 3.9 1.6 5.2 3.4.5.7 1.2 1.5 2.2 1.1 3-.9 4.8 1.3 6.7 2.7 2.8 2 5.9 3.2 9 4.4 3.5 1.3 6 3.6 7.9 6.8 1 1.6 2 3.2 3.4 4.5m303.8-104.2c-2.1.3-3.8 1.1-5.7 2-1.8.9-3.6 3.2-6.3 2.1-.3-.1-.6 0-.7.4-1 3.9-5.9 4.6-6.8 8.6M271.1 451c-4.1 3.3-9.1 4.9-13.9 5.7-3.3.6-7.6-.2-10.7-2.1-1.9-1.2-4.5-2.3-5.5-5-.5-1.3-1.9-1.5-3.7-1.3-3.3.4-6-1.6-6.6-4.8-.3-1.4-1.4-2-2-2.1-3.1-.7-4.4-4-7.8-4.5-1.6-.2-4-2.2-3.8-5m305.8 26.6c-1 3.6-4.6 3.5-7 3.9-7.9 1.5-15.6 3.4-22.9 7.2-6.1 3.2-11.6 7.2-17.6 10.6-.6.3-1.3.3-1.9.8m332.7-76.8c.2 5 .6 10.1-4.9 12.9.3 4-4.1 4.7-5.2 7.7M450.9 68.5c-.8 0-6.2-4-6.9-4.1-7.1-.3-14.1.2-21 1.5" class="st0"/><path d="M558.4 258.5c-.3-.6-1.1-1.1-1.5-1.1-4.8 0-8.1-3.2-12.1-5-7.8-3.6-12.6-10.1-17.8-16.1-2.5-2.8-5.4-3.8-8.7-4.9-5.2-1.7-10.5-1.4-15.8-1.4m240.7 129.6c2.5 5 5.9 16.9 2.3 20.3-2.8 2.7-6.4 4.2-8.5 8.1-1.5 2.8-5 5.2-9.1 4.3m19.5 45.2c0 5.3 1.3 10.3 2.7 15.3s0 4.8 0 7.1M510.2 101.7c-4.7 0-14.4 1.2-19.1-1.5-2.2-1.2-9.7 0-12.6 0M282 421.4c-.7-2.4-.5-4.2 2.2-5.8 1.8-1.1 1.6-4.1 2.2-6.2.6-1.9 1.3-4 2.8-4.3 2.7-.5 1.8-3.2 1.7-3.5-1.3-2.5 0-4.1 1.6-5.7-1.8-4.6-5.1-1.9-7.8-1.5-1.7.3-3.4.6-4.9-.5-7.8-5.4-12-2.2-18.4 2.3-2.5 1.8-3.6 4.2-3.5 7.5.2 3.6-2.7 5.5-7.8 5.6M654 274.2c-.3 4.1-1.7 7.9-3.2 11.7-.9 2.2-2.1 3.8-3.9 4.3-3 .9-4.8 3.3-7 5.1-3.1 2.5-1.2 5.9-.8 8.9m205.4-75.3c-4.3 1.5-8.2 3.6-10.9 7.5-1 1.4-2.3 2.3-4.1 1.9-1.4-.3-2.8.6-2.9 1.5-.3 4.9-5.3 4.3-7.6 6.7-.7.7-1.7 1.1-3 .5-4-2-8.5-.6-12.7-1.5-2.2-.5-2.9 1.5-4.1 2.6M339.4 54.7c-2.1-3-4.6-3.6-8.3-2.4-2.2.7-4.9.6-7.4.6s-11.2.6-14.4 1.5m541.6 444.2c1.5-1.6 2.8-1.9 5.3-1.4 4.1.8 7 2.6 9.3 5.9 1 1.5 2.5 1.5 4.1 1.5 2.3 0 4.6-.3 6.7.7M777 315.8c-4.6-2.8-9.7-1.7-14.6-1.9-3.1-.1-6.3 0-9.4 0-7.1-.3-7.6 2.6-7 7.5.4 3 0 5.8-.5 8.6-.6 3.2.6 5.3 3.4 6m281.6-198.2c-5.8 1.6-9 6.7-13.4 10.2-2.9 2.3-5.4 5.1-9.5 5.1M588.8 53.9c1 4.9 2.5 9.5 4 14.3.7 2.1 2.9 5.1-1 6.7M430.1 211.3h12c5.3 0 8.5 3.1 8.2 8.2-.3 4 1.3 8 0 12M250.5 332.6c1.2.3 2.4.7 1.8 2.2-.9 2.3-1.1 4.9-2.3 7.1-.9 1.8-1.1 3.3 0 4.9 1.3 1.8 1 3.4-.3 5.3-2 3-2.9 6.5-1.5 10 .8 1.9 2.5 3.3 3.3 5.3m673.3 51c2.2 2.2 2.6 5 .7 7.1-3.5 3.8-3.7 8.6-4.1 13.3 0 .5 0 1.1-.4 1.3-2.3 1-3.3 4-6.4 3.8m-147 20.9c-.4 3 1.3 6.6-3 8.3-.8.3-.7 2-.4 2.9 1 3 .9 5.1-2.6 6.5-1.8.7-3 2.6-2.7 5.1.3 2.3 0 4.7 0 7.1 0 4.3-.4 4.8-4.9 5.6-.5 0-.9.6-1.5.4M606 72.7c-.8 3.2-1.1 6.7-.5 9.7 1.1 5.6 1.5 11.2 1.8 16.9 0 2.1 1.5 4.8 3.3 6.3 2.4 2.1 3.8 4.6 4.4 7.6m281.6 274.9c-.5-.3-.7-1.1-1.5-1.1-4.3-.2-8.3-2.4-12.8-1.9-2.5.3-2.9 10.7-5.6 9.7" class="st0"/><path d="M749.6 509.8c0-1.7 0-3.3 1.1-4.9 2.2-3.1 1.9-4.7-1.1-7.4-1.4-1.3-2.7-3.1-4.8-3.4-.6 0-.8-.3-1.1-.8-1.8-2.9-4.5-3.8-8.2-2.6m-41.4-94.4c-.6-1-2-.9-3-2.4-2 4.1-7.2 4.6-8.7 9.2-.2.6-.9 1.4-1.5 1.4-4.1.4-3.9 3.7-4.5 6.4m-239.5-71.2c-6.2 3.5-12.8 4.7-19.9 4.6-1.9 0-2.5-1.9-4.1-2M209.6 62.9c-.6 0-1.4.3-1.9-.4-1.1 1.5-1.8 3-1.1 4.9.8 2.1.5 4-.7 6-.9 1.4-1.6 2.2-3.4 2.3-1.7.2-3.3 1.5-4.9 2.6 1.4 4 3.7 7 8.6 6.6m692.3 316.3c4.1 1.8 8.4 2 12.7 2.5 3.6.4 7.2 2.4 10.1 5 3.6 3.2 9.2 2.6 10.3-1.9 1.8-7.3 13.6-13.6 18-18.5M260.2 101.1c.9-1 2-.4 2.6 0 2.7 2.1 5.8 3.1 9.1 3.2 4.9.3 8.1 3.4 11.6 6.1m640.9 300.9c0 3.1.7 6.4-1.8 9-.4.4-.7 1.4-1.2 1.4-4.4-.1-3.9 3-3.7 5.7.2 3-1.8 5.4-2.5 8.2-.6 2.5-1.5 4.8-1.4 7.5.2 3.7-2.1 6.8-3.3 10.1-.2.5-1 .7-1.1.7-4.2-1-7.9 1.9-12 1.6-1.1 0-1.5-.7-2.3-1.1-1.7-.8-2.8-2.6-4.8-2.7m35.2-103c.9 5.4-2.2 10.6-.8 16.1.3 1.4-3 2.9-4.8 2.2-1.4-.5-2.8-.7-4.1-1.1m-130.9 6.4c-.8 1.9-.7 4.1-2.4 5.6 2 1.3 5.3-1.1 6.1 2.3.5 2.1 1.3 4.1 1.5 6.3.4 3.9 2.5 7.8 5.8 10.5 2.8 2.3 3.8 5.6 4.6 8.7.4 1.7-1.1 4.4-3.9 4.4s-3 .7-4.3 1.3c-1.8-.4-2.6-2-4-3-2.3 2.3-5.1 1.8-7.8 1.8m-311.4-79.4c-.8 3.7-.9 7.2 2.6 9.7 2.3 1.6 3.3 4.4 6 5.7 1 .5 1.4 1.4 1.1 2.6-.9 4.6 2.4 8.6 1.9 13.1 0 .7.3 1.2.8 1.5 3.3 1.7 4.2 5.5 7.1 7.5m-15 111.2c.2-1.5-.9-1.9-1.8-1.4-3.8 1.8-7.7 3.2-11.6 4.5-3.3 1.1-6.4 3-8.7 5.9-.9 1.1-2.4 1.5-4.1 1.6-4.2.2-8.4-1-12.5 1.6-1.7 1.1-4.3-1.3-6.2-2.5-3.2-2.1-17.6-11.9-21-13.7m-270.1-66.8c-1.4-.7-2.8-1.7-4.4-1 0 1-.8 1.8-.5 2.8-.1.4.1.3.3.4 2.1 1.5 4.4 1.8 6.8 1.4 5.2-.8 10 1 15 1.7 2.7.4 24.2-5.6 25.1-2.5m293.7-185.6c-.9 2-2.2 3.7-3.7 5.3-2.1 2.2-1.6 5.2 1.1 5.8 5.6 1.4 9.5 6.1 15 7.6 4.9 1.4 9.3 4.4 14.3 5.6 2.1.5 4.3.1 6.3-.4 2.2-.6 3.9.4 5.7.5 5.9.3 10 4.6 15.4 5.6m26.9 8.2c-3.3 1.9-6.3 4.2-10.5 3.9-1.3 0-3 .2-4.2 1.7-2.4 3-1.8 5.8 1.9 7.1 4.6 1.6 9.5.8 14.2.6 2.1 0 4.3.9 6.4-.2M409.1 159.2c3.4 3.3 6.2 7.4 10.9 9.4.3.1.5.7.8.7 7.3.4 5.8 5.7 5.6 10.1-.2 3.4-.6 6.9-.4 10.1.2 3.2-.5 7.2 2.3 10.1m-140.5 7.5c.4 1.1 8.4 6.5 7.8 8-1 2.4-1.4 5.1 1.8 6.7s.7 1.2.7 1.9-.3 2 0 2.6c2.9 4.5-.1 8.8-.5 13.1 0 1-.5 2 0 3 1.3 2.3 4.9 10.1 3.7 12.3m-16.8-132.5c-3.4.4-.2 4.3 0 7.8.4 4.9-.5 9.8.7 14.6.2.9.4 2.1-.7 3-1 .9-2.4 1.6-2.3 3.3.2 2.3.6 4.7 1.6 6.7 1.5 2.8 3.3 5.7 7.4 4.5M422.6 85c4.7 4.2 10.6 6.4 16.3 8.9-1.9 4.8-5.6 7.2-10.3 7.8-1.7.2-3 .7-4.1 1.9-3.3 3.4-6.7 6.7-10.1 10.1-2.2 2.2-4.8 3.1-7.9 3H396c-2.5 0-3 1.3-3 3.4v8.6m74.2 289c-.7 4.1-4.1 6-6.7 8.6-4.4 4.3-9.2 7.7-14.6 10.6-4.5 2.4-4.3 3.2-1.2 7.4 1.2 1.7 1.8 3.5 1 6-1.1 3.5-.4 7.2 2 10.5 1 1.3 1.9 1.9 3.4 1.8m-15.7-101.9c2.5 1.5 3.4 4.5 6 6.1.8.5.3 1.9 0 2.9-1.5 7.4-5.3 13.4-11.3 17.9-1 .7-1.9 1.3-1.8 2.7.2 2.8-4.9 2.1-7.1 2M584.6 364c.4-2.2 1.8-8.5 2.3-10.7.6-3-.9-5.6-1.6-8.2-.7-2.3-4.8-2.3-5.3 0-.5 2.5-2.2 3.9-3.2 5.9-2.4 4.6-4.8 9.3-6.3 14.3-.4 1.3-1.2 2-1.9 3.2-1.6-1.1-3.9-.8-4.5-3.2m93.3-277.6c3.5-2.4 7.1-3.3 10.9-.4 2.1 1.6 5.8.4 7.2 3.8.5 1.1 1 2.1 1.1 3.4.3 4.5-.7 9 .7 13.5.4 1.1-.3 2.4-1.1 2.9-4.7 2.7-7.2 7.4-10.6 11.1-2.1 2.3-3.2 4.6-4.4 7.2-1.9 4.1-1.7 8.6-3.2 12.8-.5 1.3-.5 2.7-1.6 3.7m-145.8 347c.3 2.5-5.3-.6-6.9-.9-1.4-.2-2.9-.7-4.1-1.2-5.3-2.5-14.4.8-19.1 2.5M109.1 363c4.9-1 7.6 2 10.6 5.2 2.8 2.9 3.1 7.8 7.4 9.4.5 4.1 6 6.3 4.1 11.2-.2.4-.2 1.2 0 1.5 3.8 4.4-.1 10.7 3.7 15M550.1 100c4.4.5 8.2-1.8 12.4-2.3 2.9-.4 7 .7 8.2 3.5 2.2 5 6 8.7 9.8 12.3 2.4 2.3 4.9 4.6 7.1 7.1 1.7 1.9 4.2 2.5 6.7 2.2 2.3-.2 2.3-2.4 1.8-3.6-.7-1.5-2-3.2-3.3-4-4.9-3.1-5.4-9.2-9.3-12.9-1-.9.4-1.8 0-2.6m348.6 104.2c-5.6-1.7-23.7 2.5-29.2 3.5-1.4.3-2.9.8-4.5.3-5.7-2-10.4.1-15.1 3.4-5 3.6-9.1 8.6-15.3 10.6-2.2.7-4.2 1.6-6.4.3-.8-.5-1.9-.6-2.6-.3-2.6 1-4.5 0-6.4-1.6M406.5 477.6c-4.3.8-4.4.7-4.9-3.7-.1-1.1-.7-2.2-1.9-2.2-4.2 0-6.8-3.4-10.4-4.8-3.5-1.3-6.8-1.2-10.2-1.2s-5.1-1.1-6.7 1.8M801 405.3c1.7-.8 3.2-1.9 5.3-1.6.8.1 2.3 0 2.5-.4 2.7-3.9 5.8-2 8.3-.2 2.8 2.1 3.6 5.6 2.9 8.9-.6 3.4-.2 7.5-4.3 9.5 0 0-1.2 1.7 0 3 .5.6 1.8 1.6.8 2.9M551.2 533c.2.9-.4 1.8-.8 2.2-4.5 3.6-5.4 8.5-5.7 13.9 0 2.3-1.3 4.6-2.3 6.7-2 4.7-3.3 9.5-2.9 14.7M179.6 259.6c-.3-1.7-2.1-1.7-2.8-1.4-3.8 1.5-8.6-.5-11.5 3.6-5.3-1.8-6.5 4.8-10.8 5.5-1.5.3-3.4 3.2-3.1 6.1.2 2.3-1.4 2.9-3.5 1.5m725.9-21.3c1 2.3 4.3 2.7 4.4 5.4.3.7-.2 1.1-.3 1.3-3.7 5.1-4.8 5.6-10.4 3.3-2.5-1-5.2-1.8-7.5-3.3m-139.6-79c2.1 6.1 4.8 8.4 9.4 8.2 1.8 0 3.2 1.1 4.9 1.5.7-1.7 1.7-3.7-.8-4.4-2.8-.9-4.8-2.2-6.7-4.5-1.1-1.3-3.7-1.4-5.6-1.9-3.2-.9-8 .9-9.5-4.2 0-.3-.5-.5-.7-.8-1.4-2-4.1-2-5.6-3.8-1.4-1.6.3-4.4-2.3-5.6.3-4.3-3.1-4.7-5.9-6.1-2.5-1.2-5.2-3.3-2.9-7 .6-.9-.3-1.9-.6-2.2-2.9-2.3-3.3-6.3-5.9-8.7M563.9 365.6c-2.3.3-6.8-1.1-8.5-1.8-1.4-.5-3.2-1.6-4.1.4-2.7 6.1-8 5.7-13.2 5.6m77.7-255.6c2.4 3.2 3.3 6.8 3.1 10.9-.2 2.3-1.9 4-2 6.4 0 1.2-1.7 1.1-2.1.7-1.7-1.7-4.9-1.6-5.7-4.4m8.1 5.2c3.3 5.6 9.3 8.1 14.7 9 6.6 1.1 12.5 4 19 5.2 4.2.8 7.9 4.5 8.5 10.1.4 3.9.4 7.3-1.2 10.9-1.5 3.5-.4 6.9 2.5 9.7 2.8 2.7 3.1 8.7.8 12m222.4 18.4c-1.4-1.7-3.2-2-5.3-1.9-4.7.3-9.6-.7-14.3.7-.6.2-1.6.4-2.2-.3-4-4.4-9.3-1.5-13.9-2.4-1.6-.3-3.7 0-5.6.2m-747-67.9c-.8.6-1.1 1.8-1 2.2 1.6 5.3-3.4 6-5.6 9 0 .5.8 2.2.2 2.5-2.7 1.7-2.3 3.1-.4 5 .4.4 0 1.7-.7 2.2-3.9 2.5-2.4 6.3-2.6 9.8 0 .7.3 1.9 0 2.2-2.9 2.5-.5 5-.3 7.6m221.9-59.6c3.5.3 3.1 3.8 2.7 5.2-.4 1.5.3 2.7 0 4-.6 0-1 .5-1.5.9-2.8 2.5-5.9 3.2-9.3 1.5-1.7-.9-2.6-.2-3.4 1.2-2.8 4.5-4.1 31.8-.3 34.2M218.6 47.9c.4.4.9.7 1.1 1.1 2 4.4 5.9 5.9 10.1 7.1 3.8 1.1 4.5 1.9 6 5.6m277.6 270.5c2.6 1.5 5.1 3 8.2 3.5 2.2.3 4.3.9 6.4 1.7 2.5 1 9.3 1.2 9.3-1.8m23.5 71.1c1.8-4.2-4.2 5.7-5 5.3-5.4-2.7-10.4-.3-15.4 1.3s-4.6 2.3-5.3 5.2m-240-252.6c.2 3.4-.1 6.7-.1 10.1s1.9 8.8 2 13.5c0 2.2-.8 4.3-.4 6.4m332.6 124c-5.8 1.8-7.2 6.4-7.1 11.6 0 5.2-1.7 10-2.3 15m48.1-115c-.6 6.4 2.1 12.4 1.9 18.7m55.4-.2c5.7-3 11.9-2.7 18-2 1.6.2 3.4.5 4.9.1 1.8-.5 3.7.3 4.4 1 2.7 2.7 6.3 2.7 9.9 4.2 0 1.6.5 3.5 0 5.1-2 5.5-.5 11-.7 16.5m-151.6-76c6.1 1 12 3.6 18.4 1.9 1.4-.4 2.1.8 3 1.5 4.9 3.2 10.3 4.6 16.1 4.2 1 0 2 .4 3 .6m-411-117.2c1-3 2.8-4 6-3.5 2.5.4 5 .4 7.5 1.1 5.1 1.5 7.1 5.5 4.9 10.2m321.8 148.4c-7 1.6-12.1 5.9-16.5 11.2m92.9 94.4c-2.8 2.8-6.4 4.5-9.8 6.3-1.2.6-2.9 0-4.1-1.4-1.2-1.2-2.2-2-4.5-2.1-5.4-.2-8.7-6.9-6.8-12.1 1-2.7 1.9-5.3 1.5-8.2m168.9-43.9c.3-.4.5-.5.8-.4 3.3.9 6.6 1.6 10.1.8 3-.7 6 .8 9 .7m-72.1 145.4c2.4 1.1 2.9 3.6 4.2 5.5 2.5 3.8 4.2 7.7 5.1 12.1" class="st0"/><path d="M481.5 491.8c0 .5-.6.9-.4 1.5-6 .5-9 6.5-14.6 8-2.5.7-4.8 2.7-6.1 5.4-.8 1.6-2.4 2.6-4.1 3-3.5.7-4.2 3.2-4.5 6.1v3c.4 4.8-1.7 5.7-6 6.7M843 270.4c-1.6 2.1-3.6 2.8-6.4 3.2-3.7.5-7.3 2.1-10.9 3.2-3.3.9-6.8.1-10.1.4-2.1.2-4-.1-5.6-1.5M462.4 416.9c2.5-.2 5 0 7.5.1 3.4.2 6.2 2.1 8.3 5.1 3.8 5.6 9.4 9.2 15 12.8M603 147.2c-3.2 3.1-6.9 4.2-11.3 2.7-1.7-.6-3.7-1.1-4.8.7-3.9 6.3-10.4 10.2-15.4 15.3v.4m446.6 101.1c-4.1.5-8.1.5-10.9-3.3-.7-.9-1.7-.3-2.6 0-3.3.8-5.9 3.1-8.5 5-2 1.4-4.9 1.1-6.3 3.9-.4.9-3.1.8-4.7 0M756 205.6c0-.9-.3-1.8.5-2.7 3.4 1.1 4.3 3.5 4.1 6.8-.3 4.5-.8 12.3-3.4 16.5M616.9 530.4c-2.6-.7-5.4.3-7.9-1.2-.7-.4-2 .2-3 .8-3.7 2.4-6.5 6.1-10.9 7.5-.7 3.4-4.6 4-6 6.7m56.3-353.5c-.5 1.2-1.3 2.3-1.7 3.7h-16.3m199.1 264.5c-3 1.1-6.7-.8-9.4 2.2-.6.6-1.6-.4-2.2-1.1-4.3-4.6-7-4.5-11.7-.5-1.9 1.7-4.6 2.8-7.4 2.7-1.9 0-3.8.2-5.6.8m-201.4 3c-6.5-1.6-10.3.4-12.7 6.7-.9 2.4-1.1 4.2 1.3 6.5 3 2.8 4.6 6.5 3.1 11.5-1.2 3.8-1.8 8-2.9 11.9M496.9 369c-.4-.8-.3-1.8-.6-2.6-2-.4-3.6.8-4.6 1.9-5.2 5.7-12.2 9.2-17.4 14.9-.5.6-.6 1-.7 1.6m-46.5-212.5c1.2-1.4 2.8-1 4.1-.7 7.5 1.8 13.2 6.7 17.4 12.5 2.7 3.8 4.3 8.8 6.2 13.3.4 1 1.1.7 1.6 1.1m193.3 248.9c-3-.5-14.9 5.7-16.8 2.9-1.3-1.9-4.4-1.2-6-3.2-1.2 1-2 2.3-2.9 3.5m404.6-218.7c.3 3.5 0 7 0 10.5-.2 4 .4 8.2.5 12.3 0 2.8-8.1 10.5-9.5 12.9m-222 85.2c-6.2.6-10.5 3.4-11.4 10.2 1.5.9 1.9 2.8 2.7 4.5.7 1.3.3 3.4-1.4 3.9-1 .3-2.8 1.1-3.7-.6-2.7-4.9-8.1-6.6-12.1-10-1.9-1.6-2.8-3-2.6-5.4.2-2.9-.5-5.8.4-8.6m42.7-90.6c1.3 3.2 1.3 6.7.5 9.7-.6 2.4-2.8 4.5-3.5 7.2M483 72.3c.3-1.2 1-2.2 1.2-3.4 2.3.2 4.4 1.8 6.3-.6 1-1.3 3.2-.5 4 .4 6.4 6.8 14.7 3.7 22.2 4.4 1.8.2 2.5-1.9 3.7-2.9M340.5 309c1.3-2.5 3.6-2.1 5.6-1.8 3.1.5 5.6-.1 7.1-3.1 1.1 1 2.6-.9 3.8-1.5M931.9 330c5.1 0 10.5-1 15.3 0 4.9.9 9.8 2.1 14.7 3.4m8.6 9.7c1.2 3.2 4.8 3.7 7 6 1.1 1.2 2.4 1.8 2.9 3.7.4 1.5 1.5 3 2.9 4.2M856.9 247.2c-1.7 2.7-1.7 5.1.7 7.5 2.3 2.3 2.9 4.6-.3 7.2-2.5 2-2.9 5.3-3.1 8.5 0 3.5.7 7.2-1.4 10.5-.2.4.4 1.4.3 2.2" class="st0"/><path d="M816 271.9c-2.8 0-5.2 1.7-8.1 1.6.8 2.7 1.7 4.9 1.7 7.4s1.1 3.1 3 2.9c3-.2 5.1 1.3 7.1 3M456.5 457.7c-.5-.2-2.3-.9-2.8-1.1-1.5 4.1-4.3 8-2.6 12.7 1.1 3-3.3 19.3-3.4 22.2 0 .5 1.8-13.1 1.1-13.2m77.7-422.1c-.7.4-1 1.6-1.9 1.5-4.4-.8-7.5 2.2-11.3 3.4-2.1.7-2.9 2-1.9 4.1m-90.6 327.4c-.9-3.4-3.6-1.8-4.8-1-2 1.4-3 2.4-5.5.4-1.9-1.6-7.6 2.5-8.5 5.9-.9 3.3-.5 6.8-2.7 9.8-1 1.3 1.4 3.9 0 5.4-1.8 1.9-1.9 4.2-2.6 6.4-.8 2.5-.7 4.8 0 7.2.6 1.8.8 3.6-.7 5.3-1.4 1.4-1.6 3.3-1.5 5.2v7.1m341.3-7.2c1.9 3.1 1.6 6.9 2.9 10.1.4 1 .5 2.6 0 3.3-3 4-1.7 8.5-1.8 12.8m86.6-13.4c2.6 1.9 1 5.2 2.8 7.6 1.7 2.2 3.4 3 5.8 3.2 4.8.4 5.4 1.5 6.9 6.3 1.5 4.9 2 10.2 5.7 14.4 1.3 1.4 1.9 4.6 2 6.9 0 3.6 1.7 6.5 2.7 9.7M521.6 603.4c2.9-.2 3.8 2.7 5.9 3.9 3.8 2 11.7 1.3 14.3-2 2.6-3.5 7-4.2 10.2-6.6 1.4-1 3.3-.8 4.8.3 3 2.4 7 2.6 10.2 4.7 1.9 1.2 4.8 1 7 2m389-352.5c.2-2.1 1.8-1.4 3-1.5 1.3-.1 2.6.2 3.8-.7 2.4-1.8 3.1-.3 4.2 1.8 2.1 4.2 0 8-1.3 11.6-.8 2.3-1.1 4.7-1.6 6.9-.9 4.1-2 6.8-6.9 7.7-2.7.5-5.8 2.1-8.3 3.9m-261.8 26.9c-2.6-4.3-5.6-7.8-11.3-7.5-2.7 0-5.8-.7-7-3-1.6-3-4.3-2.2-5.7-1.6-4.1 1.7-8.2 1.8-12.5 1.7-3 0-6 .5-8.6 1.9-4.2 2.4-9.2 2.4-13.5 4.9-2.8 1.6-7 .9-10.6 1.4m-154.3-43.1c.9.7 1.6 1.6 3 1.5 2.3 0 4.5 0 6.8.7 3.5.9 6.2-1.1 9-2.9 1.7-1.1 8.6-2.1 10.4-3m285.4 25.8c-.6.4-1.2.8-1.5 1.5-1.2 3.4-4.2 3.9-7.1 4-2.3 0-4.4.5-6.4 1.6m-143.9-211c-1.2-1-5.8-1-7.2-1-3.7 0-7.5.6-10.1-3-.7-1-1.7-.7-2.6-.7m-420 314.2c0 1.4-.6 2.8-1.5 3.3-4.5 2.5-3.7 7-4.4 10.9v.4c0 8.2-.3 7 7.5 6.7M551.6 51.3c8.4 4.3 9.1 6.2 7.9 15m264 146.8c-2.6 1.9-4.5 4.3-6 7.1-.9 1.6-2.1 2.8-4.5 2.8s-4 1.2-5.7 2.8c-3.5 3.2-7.6 5.9-10.5 9.7-1.9 2.6-3.9 5.1-5.9 7.2 0 2 1.2 3.1 1.5 4.5m69.4-40.1c-4.4 3.6-6.6 9.5-12.4 11.6-1.4 4.1-4.8 7.5-4.5 12.4.3 6.6 0 13.1-1.8 19.5-.5 1.8-1.6 3.2-2.4 5 1.8 2.4 4.6 4 5.7 7 .5 1.4 1.8 1.4 2.7 1.4 1.9 0 3.6.8 5.2 1.6M592.9 426.3c3.2 1.6 3.7 4 1.1 6-2 1.6-3.2 3.8-4.1 6-2.2 5.6-3.7 6.7-9.8 6.7m350.3-113.9c-5.1 2.5-6.8 7.1-7.1 12.4 0 1-.3 2-.4 3m-527.3-74.9c-2.6-.4-4.7-2.3-7.1-2.9-3.8-1-6.8 1.1-9.7 3.3M199.1 406c-.7 2.1-1.8 4-1.9 6.4-.1 2.8.2 4.7 3.8 4.6.9 0 9.8 17.9 10.6 19.3m398.5-99.9c.5 1.8 0 3.8 1.8 5.3.8.7 1 2.5.2 3.6-2.2 3.3-2.6 6.2.2 9.5.6.7 0 2.2 0 3.3 0 3.9-.2 7.8.4 11.6m-123.7 3c1.4.9 1.5 2.2 1.5 3.7.1 4.9-.9 10 1.8 14.6.4.8-.1 1.8-.7 2.6m-109.3-99.2c-2.5-.4-5.4-3-6.7 1.8-.6 2.2-3 .8-4.6 1-.4 1.2-.1 2.4-.2 3.6m560 28.1c-1.4-1.8-2.9-2.2-4.5-.4-2.4 2.8-6.5 3.5-8.4 7-.4.8-2.3.8-3.6.9-2.3 0-4.6-.6-6.8.5m-615.7-43.2c-1.7 2.9-5.1 4.3-6.3 7.5-.8 2.2-2.5 4.2-2.3 6.7 0 .5.2 1.2 0 1.5-3.5 3.4-3.5 7.7-3.6 12 0 .7 0 1.6-.9 1.9-3.9 1.2-3.6 6.8-8.3 7 2.7 3.6 4.6 6.8 6.1 10.3M483.4 58.1c-4.1 2.6-7.2-.2-10.6-1.9-1 1-2.5 1.2-3.7 2.2-5 4.3-11.4 6.5-16.8 10.2-.3.2-.7 0-1.1 0m233.2 353.2c2.1 2.6 5.4 3.7 7.5 6.3 2 2.5 2.6 8.5.7 11.2-.8 1.2-1.7 2.2-1.5 3.8.5 3.1-.8 5.8-2.7 7.8-2.2 2.3-2.9 5.4-5.2 7.6m171-175.1c-1.7 2.5-4.5 7.9-7.8 9.1-3.7 1.3-6.4 4.1-9.6 6.1-1.8 1.1-6.2 4.1-8 5.8m-596.7-45.9c1-.6 1.2-1.7 1.5-2.6.7-2.7 2.7-2.7 4.9-2.6 2.3 0 3.6 1.2 3.7 3.4.3 3.5 4.4 4.1 5.4 7.1 0 0 1.5.4 2.2-.3 1-1.1 2.4-1.8 3.4-3m284.9 15.2c-3.3.2-6.5-.6-9.8-.7-2.1 0-4.3-.5-6.4.3M405.6 56.4c.5.6 1.6-11.4 3.1-11.4 3.8 0 7.4 1.1 11.3.2 2.9-.7 6.2.2 9.3.2s1.7-.5 2.6-.4m398 397.4c.6 1.1-6-.8-5.6.3-4.2 6-6.2 6.5-13.1 3.3-1.6-.7-2.8 0-4 .4-1.4-2.8-5.6-17.8-9.4-16.6" class="st0"/><path d="M836.2 465.6c-1 .9-1.7 2.1-2.6 3-2.2 2.2-2.3 5.4-1.2 8.2 1.1 3 1.9 5.9 3.7 8.7 2.5 3.7 5.7 5.3 9.9 5.5M476 49.8c-5.4-.8-15.4 1.4-20.7 1.1m384.3 203.8c-2.6-1.5-5-3.2-8.3-3.1-4 .2-4 0-3.7 4.2m-139.5-79.7c3.3 1.6 5.4 4.7 8.3 6.7 1.7 1.2 1 3 1.1 4.5.3 3.7-1.5 8 3 10v1.2c-3.3 4.3-1.1 8.5 0 12.7 0 .3-.3.6.4.8 4.9 1.1 6.7 6 10 8.9 2.7 2.5 6.3 5.3 7.6 9.4M565.9 52.1c3.9.6 6 3 6.7 6.7.5 2.3 2.1 3.1 4.1 2.6 3.2-.8 4.8 1 6 3.4 1.5 2.8 2.5 5.7 2.3 9-.2 3.2 0 6.5 0 9.7s.3 4.7 2.3 6.4M283.1 424.4c.6 3.5 3.1 5.7 5.7 7.8 1.7 1.4 2.4 2.6 1.9 4.9-.5 2.4-1.4 3.3-3.8 3.4-3.6.2-7.2 1.8-9.6 4.2-1.6 1.7-3.4 3.1-5.1 4.7M566.2 76c2.1 1.8 3.6 3.8 4.2 6.7.6 3.2 4 5 4.8 8.3M681 275.3c.9 2.4 1.5 4.6 4.1 6.1 3.6 2 3.8 3.9 2.3 8.1m185.6 3.4c-.4 3.1-.2 6.3-2.2 9-.8 1.2-.8 2.7.4 3.7 1.7 1.4 3.7 2.4 6 2.2 1.3-.1 1.8-1.4 1.9-2.9.2-3.3 3.4-4.9 4.8-7.5m-486-61c-1.5 0-3 .2-4.5 0-4.1-.6-7.8.8-11.6 1.9m589.1 36.3c2.1.6 4.1 1.8 6.4 1.5 1.3-.2 1.4.8 1.9 1.5 2.3 2.9 9.3-1.7 11.4-3.9m-169.2 14.7c.4 1.5 0 3.1 1.3 4.5 4.7 5.7 6.3 12.3 4.5 19.4-1 3.7.6 7 .9 10.5.6 6.3-2.2 10.4-6.9 13.9M483.8 176.1c-.3.5.7 1.7-.7 1.5-2.1-.3-4.2.3-6.5-.9-2.4-1.3-5.5-1-8.2.2M948 307.2c2 1 3.5 3.1 6.5 1.7.9-.4 3.6.3 4.4 2.4.2.5.3 1.3.7 1.1 3-1.3 2.1 14.7 3.5 15.2M126.4 136c2.9.6 2.8 2.5 1.8 4.5s-2 3-2.9 4.5c-1.3 2.1-2.1 3.8-1.1 6.8.9 2.7 1.5 6.5-1.1 9.7-1.4 1.7-2.2 4.2-.6 6.7.5.9.3 2.4-.3 3.7-2.5 5.7-4.9 11.4-6.2 17.5-.6 2.7-2.7 5.7-5.8 7.2m461.3 379.1c0 7.3 0 14.5-.3 21.7.6 1.3 2.4.9 3.7 1.5.6 2.1 1.6 4.1 0 6.4-1.1 1.8 1.7 3.5 1 5.6" class="st0"/><path d="M535.5 54.3c-1 3.1-.6 4.6 2.6 5.1 6 .9 10.6 4.8 16.1 6.4 3.9 1.1 7.7 2.8 12 2.4 3.4-.3 6.6.4 9 3 .7.8 1-.2 1.5 0M237.8 406.4c-1 1.3-1.8 2.7-2.6 4.1-2 3.6-11.5 4.6-13.5.3-1-2.1-12.5-4.4-13.5-5.9m663.7 85c.2 5.8 3.6 10.5 5.3 15.7.2.6.7 1.5 1.8 1.1m-190.1-4.4c0-2.1.3-4.2-1.1-6-1.9-2.5-5.2-3.3-7.5-3.2-3 0-4.3-1.2-5.6-3.1l-3-4.5m53.2 28c-.9 0-1.5.9-1.8 1.5-1.1 2.3-2.7 2.6-4.9 1.9-1.7-.6-2.5-.2-3.9 1.3-1.9 2.1-3.7 5.2-7.7 4.7-2.2-.3-4.4 1.4-6.7 1M374.8 394.1c-3.6-2.2-10.6-3.8-14.8-3.4-1.1 0-1.7.5-2.2 1.2-2.8 3.3-5.7 6.2-10.1 7.2-.6.1-1.4.9-1.6 2 1.3 3.1 2.5 6.4 4.2 9.6M483 257c-.6-2.9-2.5-3.5-5.3-3.4-5.1 0-9.9-1.3-14.6-3.3-1.7-.7-3.5-.3-5.3-.4-3.2-.1-5.8 1.5-8.6 2.6m449.4 144.1c-2.4 0-13.3-1.1-13.5 1.9 0 1.2-1 .9-1.6 1.3-2.2 1.7-4.9 2.6-7.2 4.2-1.9 1.4-2.9 3.2-2.1 4.9 1.3 2.8.7 5.3.3 7.9-.5 3.2-2.6 4.8-5.2 5.7-2.1 6.4 1.7 11 4 16m69.1-65.4c-1.9-1.4-3.3-.9-4.5 1.1-3.7 6.1-3.8 6.1-10.3 2.7-1.3-.7-2.9-.4-4.3-.4s-3 .2-4.5-.4m-806.3-82.4c.4 2.7.6 5.5.9 8.2.2 2.7 3 4.2 4.4 6.4M753 295.9c-1.9-1.6-4.1-2.5-6.1-3.9s-4.9-1.1-7.4.8c-4.3 3.2-8.2 6.8-12.7 9.8m7.1 43.5c2.2 1 1.9 3 2.3 4.9.7 3.2 1.4 6.6 4.8 8.3M794.2 179c.8 1.8 2.8 1.5 4.2 2.2 4 2.1 2.4 6 2.8 9.1.6 4.2-.7 8.8 2.4 12.5.5.6.9 1.3.7 2.1-.8 3.3.4 6.5.3 9.7 0 3.5.5 6.5 3.1 9m267.4-118c-2-.6-4.1-.8-6-.2-1.6.4-2.8.6-4.2 0-1.8-1-3.3 0-4.9.8M672.4 431.5c5.3-1.7 8.1-6.1 11.3-11-5.2-1.1-4.6-6.1-6.6-9.2-1.5-.7-2.6.5-4 .3-2.5-.4-4 .5-3.8 3.3 0 .7-.3 1.3-1.1 1.7-3.9 2.1-5.9 5.6-7.5 9.5-.6 1.6-1.4 2.9-3.4 2.6-1.3-.2-1.5.7-1.9 1.5-1 2.1-2.6 2.1-4.8 1.6-.9 2.3-2.9 4-5 5.5m207.9-60.9c.2 4.2.5 4.5 4.5 4.9 1.4.1 4.7 4 4.4 5.6-.4 2.4-1.8 3.2-4.4 3.1-1.8 0-4.3.4-4.5 3.2m-624-319.8c.9.6 2.3.9 2.6 1.9.9 4.2 4.2 5.6 7.6 7.1 1.5.7 2.9 1.6 3.4 3.4M948 350.2c1.9 2.4 3.5 3.8 6.9 1.3 1.8-1.3 5.3.4 7.7-1.3m-453.7-74.5c-.4 1.1-1 2.3-2.3 2.6-4.5 1-8.7 3.4-13.5 3.4m404.7-46.8c3.6 4.7 3.7 9.9 2.2 15.4m-98.6 179c-1.9 0-3.9.3-5.7-.8-1.9 1-3.1 2.7-3.6 4.6-.9 3-2.4 4.9-5.7 4.9s-1.1.3-1.6 1c-3.3 4.9-3.3 13.7-.4 18.8.9 1.5 1.8 1.7 3.1 2" class="st0"/><path d="M933.8 379.4c.9 1.4.7 3.1 1.5 4.5 1.7 3.1 1.1 4.4-2.2 4.8-3.4.4-6.3 1.9-8.6 4.2-1.8 1.9-3.7 2.3-6.1 1.5-1.9-.7-3.6-.7-4.5 1.5-.5 1.3-1.6 1.8-2.6 1.4-4.2-1.4-8.5-.3-12.8-.7M641.6 514.3c-2.9 0-5.8.2-8.7-1.2-2.6-1.3-4.7.4-6.3 2.3m134.3-329.2c1 .4 2 .7 1.9 2.3-.5 5.3-2.2 10.2-5.3 14.6" class="st0"/><path d="M926.2 391.1c-1-1.7-1.4-3.7-3.7-4.5s-1.1-3.3-1.9-4.8c-6.6-2.8-11.2.9-15.8 4.8M492.9 282.4c.3-.9-.2-1.1-.9-1.1s-1 .1-1.5 0c-4.1-1.1-8.1-2.6-12.4-2.2M833.6 263c-3.2-3.4-7.8-2.7-11.6-4.5-1-.5-2.1-.8-3-1.5M505.1 87.3c0 1.4 0 2.7 1.9 2.6 2.3 0 3 1.6 3.3 3.4.5 2.7 1.3 5.3 1.2 8m358.1 355.3c.7-1.2.8-2.6 1.5-3.8 3 .5 6.1.4 6.9 4.5.2 1.3 1.9 2.2 3.6 1.9 2.4-.4 3.4 3 6 2.2M909 293.7c2.9 2.2 2.4 5.6 3 8.6 0 .7-.2 1.1-.7 1.5-2.8 2.5-3.9 7.2-9 6.4-1-.1-1.8 1-1.5 2.2 1 3.4.7 7.3 3.3 10.1m33.4 15.4c2 1.4 3.7-.8 5.6-.4 4.7.8 9.1 2 13.6 3.9 4.9 2.1 10.6 4 16 .3M612 306c0 2.5.2 4.7-2.1 6.9-1.6 1.5-1.9 4.5-2.4 6.9m104.6-141.5c-3.1 1.3-6.7.6-9.8 2.5-1.5.8-2.8 2.4-4.8 2.4m-264.7 71.9c3.9 6.6 2.4 13.6 1.8 20.6 0 .3-.2.8-.3 1.1-1 1.8.9 4.9-2.6 5.7-2.2.5-4.2 1.9-6.8 1.5-1.8-.3-3.8.1-5.6-.4-.6-.2-1.5.4-1.8-.4-1.6-4.2-5.2-2.8-8.3-3-1.1 0-2.3.1-3.4-.4m457.8 243.5c0 .5-.2 1.2 0 1.5 3.1 4 2.4 22 2.8 26.4m-98-256.8c-3 1.8-5.6 4-9.4 4.6-2.1.3-3.6 0-5.3-.9m160.5 56.6c-1.1 2.2-2.9 4.5-.3 6.7 2.8 2.5.8 5.1.2 7.5-.4 1.3-1.4 3-2.9 3.7-2 1-2.7 2.8-3.8 4.5-1 1.6-2 3.2-4 4.3-2.4 1.2-3.8 3.8-4.2 6.6M318.8 74.5c-4.5 4.8-7.9 10.5-13.1 14.6-2.6 2-5.3 4-6.7 7.1m76.4 298.2c.6 3.3 4.2 7.4 7.1 7 4.8-.7 7.6 2.3 10.4 4.8 1.9 1.7 3.6 2.1 5.8 2.1M706.5 218c-2.4 2.4-4.9 3.2-7.5.4-.7-.7-1.6-.4-2.3-.3-6 1-12-.7-18 .2-2.3.3-4.9-.4-5.2-3.6-.4-3.4-2.2-6.6-1.5-10.1M633.3 334c3.1 2.9 13.1 11.4 16.5 13.2 2.2 1.2 5.1 1.1 6.8 3.3.3.4.9.4 1.5.4 7.1-.7 13.8 2.8 21 2.3 2.2-.1 3.5 1.3 4.2 3.7 1 3.5 2.5 6.7 6.3 8.3 1.4.6 1.7 1.9 2 3.3.5 2.5 1.7 4.4 4.4 5.3 2.4.8 8.7 7.9 11.1 8.9m-1.3 3.3c-.4 1.3-1 2.4-.5 4 .5 1.7-.4 3.5-.9 5.2-1.4 4.5-5.2 7.3-6.8 11.6M100.1 53.6c3.6-2.9 2.1-6.6 1.4-10.1-.2-1.2-1.4-2.1-2.9-1.9m545.6 453c1.2 2.8 1.7 5.7 1.6 8.8 0 2.2-1.9 8.7-3.7 10m-74-230.2c-.3 2.1.6 3.8 1.9 5.2 2 2.1 4 4.3 5.9 6.4 3.3 3.7 4.4 8.4 5.7 13.1M207.4 187.7c4.2 1.6 7.1 5.3 11.1 7.3 1.2.6 2.8 1.1 3.8 2.1 2.3 2.2 4.7 4.3 6.7 6.7 2.5 3 3.8 3.4 7.5 1.5M676.1 469c1.3-.1 2-1.6 3.3-1.5 1.5.6 2.1 1.6 2 3.2-4.4 2.2-7.4 5.3-6.7 10.7.3 1.9-1 2.6-2.3 3.4-1.4.9-2.5.2-3.4-.8-1.8-2.1-4.1-3.6-5.3-6.3-1.1-2.5-3.5-4.4-6-5.1s-3.7-2.3-5.2-3.9m-33.7-122.4c2.6 1.2 3.6 3.3 3.4 6.2 0 2.4-.5 5 1.1 7.1.8 1 0 1.8-.2 2.6m-449.9-84.6c-4.4 4.2-5 10.5-8.2 15.4m169.1 14.2c2 .7 3.3 2.4 5.6 2.8 1.3.3 3 2.2 2.6 4.3-.2 1.4.6 2.2 1.5 3m-129.7-269c-.6 3.1-2.9 5.9-1.9 9.4.2.7-.2 2 .5 2.2 3.6.8 4.9 4.6 8.2 5.7 3.4 1.1 6.2 3.1 7.9 6.3m488.6 257c-.5-1.2 0-3.1-2.3-3-1.8 0-3.5-.2-4.5 1.9-1 1.9-2.5 3.3-4.8 3.2-1 0-2.2-.1-2.7-1.6-.5-1.7-2.3-2.2-3.5-3.1-2.7 1.2-4.1 3.4-5.4 5.7m-83-256c0-2.4-1.1-4.1-3.8-4.1s-2.7-1.2-3.5-3c-2.2-4.6-2.7-9.9-6.2-14-.8-1-1.4-1.6-2.7-1.4M658.5 257c2.8 0 5.5.2 8.4-.6-1.2 4.1-4.8 7.4-10.7 9.9m-213 58.1c-2.5.2-5-.7-7.5-.4-1.4.2-2.3-.7-3-1.5-2.2-2.8-5.5-2.4-8.3-2.2-1.8 0-3.8.2-5.6.4m158.3 181.1c-.9.9-3.5 5.1-5.2 5 0 2.6 0 5.2-1.5 7.5-.6.9-.2 1.9 0 3 .4 2.9-.2 5-3.7 5.7-2.9.5-5 2.6-6.7 4.8-2.2 2.8-2.3 8.9 0 11.9 1.9 2.5 2.2 5.7 3 8.4 1.1 4 3.9 5.1 6.2 7.5 2.8 2.9 5.5 5.3 9.5 6.4 2.3.6 4.3.7 6.4 0m-137-324.1c4.3 3.1 1.8 7.4 1.8 11.2s-.3 1.5-.3 2.6c-5.9-.2-11.7.8-17.2 3m286.8 225.5c-1.1 2.8-1.3 3.7.4 4.8 5.2 3.3 5.2 8 4.1 13.2m-93.8-16.9c-1.1-2.8-7.8-12.1-5.9-16.4-5-.1-10 0-15 1.1-1.9.4-3.8 1-5.2 2-2.9 2.3-5.2 2-7.6-.5m34.9-351c1.7 2.8 3.6 5.4 5.8 7.9s2.7 6.4 3.9 9.8c.8 2.1-1.4 2.5-2.6 3.4M73.9 107.5c3.9 1.4 7.6 1.9 11.3-.7 1.1-.8 2.9-.3 3.4 1.8.2.7.8 1.4.7 2.3-1 6.9.7 13.3 3.4 19.5.6 1.5-.4 3.2 1 4.5 2.5 2.4 5.4 2.4 8.2 1.4 2.5-.9 4.8-.9 7.2 0m461.7 234.5c1.8-.3 3.3.6 4.9 1.1 4 1.3 8.4 1.6 12.4.3 2.3-.8 4.4-.2 6 .9 3.5 2.4 7.8 1.9 11.4 3.9 1.6.8 4.9-6.1 4.2-7.7m-259.1 79.8c1.4 4.3 5 7.6 5.7 12.4 0 .6.9 1 1.4 1.5m526-105.3c-2.9 1.5-10.8-1.3-14.4-1-3.1.2-6.4 0-8.6 2.9-.5.7-1.1 0-1.5 0-6-1.4-11.8.6-18 1-1.3-1.9-3.1-3.7-6-3.6m-341 40.8c-1.6 3.3-2.1 6.4-.9 10.2 1.9 5.8 3 11.6 1.5 18-1 4.2-3.1 9.5 2.1 13 1.7 1.1 5.1 4.4 6.5 5.7m449.8-148c-1.5-.8-2-2.4-2.1-3.8-.3-2.5-1.8-2.2-3.5-2.3-2-.1-2.7.9-2.6 2.7m-81 47.6c-1.4 2.9-3.9 5.3-4.6 8.6-.3 1.5-1.7 2-3.3 1.9-2.2 0-3.1-1.9-4.6-2.9-1.6-1.1-3.6-1.2-3.3-3.9.3-2.6-1.8-3.4-3.7-3.3-4.6.2-7.6-3-11.3-4.9m-5.2-26.3c3.8 2.4 8.9 1.6 12.4 4.8 1.8 1.6 3.4 0 4.7-1.1 4.5 3 16.2 12.1 20.2 9.1M177.4 40.5c.6.5 1.6.2 2 1.5 1.4 4.7 2.4 9.6 6.2 13.2.6.6.9 1.6 1.2 2.6 1.2 4.1 1.8 8.5 5.2 11.6 1.9 1.8 2.2 4.7 3.8 6.7m549.7 258.7c3.2 2.7-.7 10.8 0 14 0 .4-.9 1.4-.6 1.8 2.6 4-.9 6.4-2.3 9.4M366 306c-.3 1.4.6 2.2 1.5 3 1.7 1.4 2.7 3.2 3.4 5.3 4.8-1 38.8-13.5 42.6-17m263.4-41.8c2 2.3 4.7 1.4 7.1 1.5 2.4.1 4.8 0 7.2 1 .9.5 2.7 8.7 3.1 9.1m-175.7 7.5c.9.1 1.8-.3 2.6.4-2.3 2.6-7 3.6-9.7 1.4-4.3-3.4-9.6-4.6-14.3-7-.5-.2-.6.6-1.1.4M562.9 430c1.5 1.6 2.5 4.3 5.7 2.7.8-.4 1.4 1 1.4 1.4-.2 6.3 4.1 10 7.9 13.9.2.3.5.5.7.8v.4c2.5 0 3.9-1.3 4.9-3.4m386.8-170.9c-1.2-1.1-6.7-6.8-8.1-7.7-2-1.3-3.4 0-4.9 1.4-3.4 3.3-3.4 3.2-6.8-.3-.7-.8-1.7-1.2-2.3-2.2-.8-1.4-3.2-.8-3.2-.6 0 3.1-3.5 2.8-4.6 4.7-.8 1.4-1.9 1.7-3.4 2s-2.7 1.1-2.7 3.3c0 3.4-3 5.9-4 9M460.9 507.2c.5.6 1.5.3 1.9 1.1 1.4 2.5 3.5 3.5 6.4 3 1.5-.3 2.3.6 3 1.8.6 1 1.6 2.1 2.9 1.5 5-2.1 10 1.4 15 0 1.4-.4 2.2 1.1 2.7 2.4-1 1.5-2.3.6-3.5.9" class="st0"/><path d="M862.9 339.4c-1.7.2-3.2-.3-4.9-.4-4.2-.3-4.7 0-3.8 4.2v1.1m-68.6-93.7c1.3-.7 2.8-.5 4.2-1.4 3.7-2.4 6.1-1.5 9.4 2.1 2.7 2.9 5.4 5.7 10.5 4.1 2-.6 4.9-.6 7.4-.3m-705-7.5c3-1.2 5.8-.2 7.8 1.6 2.3 2.1 3.9 5.5 1.9 8.4-2.5 3.5-1 6.1.9 8.7 2.3 3.1 3.6 6.2 3 10.2-.5 3.7-1.1 4.7-5 5.2-1.2.2-2.6 1.3-2.5 1.8 1 3.6-2.7 4.9-3.5 7.5m762.1 272c-2 4.3-2.4 8.6.4 12.7M507.4 303.8c4.7-1 9.5.4 14.3 0 1.3-.1 2.3.3 3.4 1 1.8 1.2 3.8 1.8 5.6-.3m67.1 164.8c-.6.5-.3 1.5-1.1 1.9 3.2 5.9-1.6 10.3-2.8 15.4-.5 2.1-.9 3.9-2.4 5.4m28.7-266.1c-1.1 3.2-3.4 5.5-6 7.5-.7.5-1.2 1.3-1.1 1.9.9 3.2-1.2 4.9-3.1 6.7-.9.9-.7 2-1.1 3-.9 2.8-1.4 5.8-3.8 7.9m19.1 211.3c-1.2-.2-7 9.3-6.9 10 .9 12 2.5 26.3-7.9 4.9-3.1 5.2-8.1 8.4-10.4 13.5m361-124.8c-.5.8-1.6 1-1.5 2.2 0 1.7 0 3.2-1.7 4.6-1.4 1.3-.3 3.9-.5 5.9M568.1 187.7c-.3 3.6.8 7.2.5 10.9 0 .4 0 1.7 1 1.8 3.5.4 5 3.1 6.7 5.6s4.7 2.1 7.1 3c4.3 1.7 9.2 2.3 11.6 7.1.6 1.3 2.3 1.8 3.3 1.4 1.3-.5 2.4-1.8 2-3.6-.2-.8-.4-2.3 0-2.5 3.3-2.1 2.1-5 2-8 0-3.2-.7-6-3.1-8.3-.6-.6-.8-1.8-.9-2.9 0-1.8-.8-3.3-2.6-4.1m96.5 31c-.4 3.2-.3 6.5-3 9-1 1-.2 2.5 0 3.7M394.9 443.9c0 .7-.4 6.3-.4 7.1-.1 4.8-.3 9.5 4 13.3 1.6 1.4 3.3 4.3 2 7.3m231.7-164.4c-2.7 3.6-2.8 8-2.4 12 .3 2.8 1.9 5.5 2.2 8.6 0 1.8.3 3.8.5 5.6M291 438.6c1.2.5 2.5.6 3.7.3 6.8-1.2 9.8 4.5 13.7 8.1 1 .9.5 4-1 5.8m606.5-16.4c-2.9-1.9-5.7-3.8-7.1-7.1-1.8 0-3.3.7-4.9 1.5m-753.4-70.1c3.4 2.8 3.4 7.3 5.2 10.9s3 7.6 5 11.2c.8 1.4.6 2.5.6 3.8 0 4.9 2.7 7.9 7.5 8.2 1.4 0 2.2.7 3 1.6m704.7-149.2c.4 6.2-1.2 7.1-6.4 7.1s-5.4 2.5-8.3 3.3m-215.2-85.3c1.6.2 2.5 1.5 4.1 2 4.5 1.5 6.7 6.4 5.3 11.1-.9 3-.2 4.9 2.7 6 1.6.7 3.1 1.4 3.1 3.7s-1.4 3.2-3.1 3.7c-3.2.9-4.1 4.3-6.7 5.7m-24.3 79.9c0 .9-.9 22-.9 22.9-2 .6-3.9.2-5.6-1-2-1.3-4.2-1.4-6.4-1-1.6.3-3.1 0-4.1-.9-4.8-4.3-10.1-2.6-15.4-1.5-1.4.3-3.8 4.6-5.3 4.2M140.6 132.2c.8 4.2.4 8.5.8 12.7m571.5 151c-4.3-1-9.1-1.3-12.6.7-4.1 2.3-9.5 1.9-12.5 6.1m15-27.4c-.4 4.8-4.6 6.2-7.9 7.7-2.5 1.2-2.3 3.1-2 4.6.3 1.4 2 2.8 3.9 1.3 1.4-1.1 2.5.3 3.8.2M175.4 132.9c2.8 2.7 6.1 10.2 8.9 13.1 1.7 1.7 2.6 2.4.3 3.9-.9.6-1.4 1.5-1.1 2.6m596.9 120.9c-.2.7.5 1.2.4 1.9-.8 4.1.6 7.2 4.1 9.4m-50.7-93.3c-1.1 1.5-1.3 2.9-.9 4.9.6 2.5 3 12.3 2 14.8" class="st0"/><path d="M602.2 305.3c-3.6 3-7.6 5.2-11.6 7.5-4.2 2.3-6.1 5.9-4.8 10.1.4 1.2.6 2.1-.4 3-3.2 2.8-2.9 6.2-1.5 9.7m375-133.7c4.2 2.1 8.8 1 13.1 1.3 2.6.2 5.5 0 8.2-.1 1.6 0 3-.3 4.1-1.5M198 257.3c-2.1-1-4.7.4-6.8-1.4-.7-.6-2.4.2-2.8.7-1.7 2.2-4.9 2.9-5.8 5.9-.2.8-.9 1.7-1.8 2.3-3 1.9-4.9 4.5-4.1 8.2.5 2.5-1.3 3.1-3 3.7m142.4 206.1c.7.3 1.1-.6 1.1-.7-.7-3.6.4-7.1 1.3-10.5.9-3.2-.7-5.7-2.2-7-3.7-3-5.7-7.1-8.5-10.7-1.5-1.9-4.1-2.2-6.1-3.2-2.7-1.3-4.9-4.1-8.5-3.7-2.6.3-4.2 2.4-6.7 2.8-3.4.6-6.8 1.5-10.1 2.1-1.8.3-4 .5-4.7-2.2M435 494.8c3.3 3.8 6.5 7.8 10.3 11.1 2.3 2 5.3 3.7 8.5 4.7m232.4-309.8c-3.2-.1-5.8 2-9 2.5-3.5.6-6 1.2-8.8-1.7-2.3-2.3-5.6-3.7-8.5-5.3m65.8 54c-2.1 1.5-9.7 5.2-11 7.7-.6 1.1-1.6 2-3.3 2-2.8 0-5.7.1-7.2 3.3-.2.3-.5.5-.3.8-4.2-2-6.1 2.5-9.4 3.2-3.7.9-6.1 4.3-9.4 5.6-7 2.7-11.7 8.3-17.2 12.9-.2.2-.3.5-.4.7M411 440.3c2.5-.3 1.7 1.6 1.9 2.8.6 3.4-.6 7.2 2.2 10.1m345.4-186.1c-5-.4-8.5 2.1-11.6 5.6m155 51.8c-3.9-1.6-24.3-1.2-24 2.1.5 5.9-2.7 10.6-4.3 15.7m4.9-98.1c-2.3 0-4 1.2-5.7 2.7-2.9-1.9-5.8-1.5-9-.5-3.7 1.1-9.9 1.2-13-2.6-1.2-1.5-2.7-2.1-4.2-2.1-4.6 0-9.3-.5-13.9.3m-85.5 11.6c-3.6-1.5-6.8-.2-9.7 1.6-3.7 2.2-7.4 3.3-11.7 2.9m-432.7 26.6c.5 1.9-.7 2.9-1.8 4.2-1.8 2-.9 3.2 1.8 4.1 2.9 1 5.1-.2 6.3-2.4 1.2-2.2 1.3-5.4 0-7.3-1.9-2.7-4.3-.7-6.2 1-4.9-5.7-4.8-12.1-2.5-18.6-1.3-1.3-3.1-.9-4.3-2m594.7 18.4c-1.5 0 14.6 2.5 13.1 2.7-2.5.4-22.4-1.8-24.5-4.2-1.2-1.3-3.6.2-5.2-1.2m-738.6 4.2c1.1 2.1 3.2 3.3 4.6 5.2.6.8 2.1 1 2.9-.3 1.1-1.8 2.5-1.9 4.1-.9 1.1.6 2.4.2 3.3-.3 1.4-.7.2-1.9 0-2.9-.5-3.9.8-5.7 5.2-7.9m719 273.4c-1.9.3-1.5 1.8-1.5 3v8.6m29.6-123.6c3.2.7 1.7 3.7 2.7 5.6 2.4-.2 3.7 3.5 6.7 1.9m-152.1-41c.8.5 3.2 4.2 4.3 3.9 5.2-1.2 9.8 2.5 15 1.5.4 0 .9-.1 1.1.4 1.2 2.5 3.6 1.8 5.6 1.9m-220-73.9c-4.7-.7-8.7 2.2-13.1 2.6-4 .3-8.2-.5-12 1.6m-90.9-18.3c0 1.1 4.3 1.7 6.1 2.3 1.7.5 3.3 1.6 4.9 2 2.6.7 4.2 2.2 5.6 4.2M838.5 191c-1.2 3.2-1.2 5.9 2.2 7.9s1.5 5.3 0 8.2M467.6 390.3c-2.8 1-3.6 3.9-5.6 5.6-3.1 2.7-7 3.9-10.9 3.9s-2.2.7-3 1.7" class="st0"/><path d="M894 334.9c.5.2-2.5-9.6-2.3-9.2 2 4 5.7 14.7 9.8 12.6 1.1-.6 2.2-1.3 3.4-1.8 1-.4 2.5-.5 2.6 1.4m55.9 6.3c-.5 1.3-.3 2.7-.4 4.1-.2 2.5.4 4.1 3.4 4.6 4.3.8 6.2 4.2 7.1 8.1m-100.9 41.7c-4 1-6.1 4.7-9.3 6.8-1.7 1.1-.6 3.2-.8 4.8m25.9 11.2c-2.9 1.3-5.2 3.9-8.6 3.7-2.1 0-5.7 6.1-8.3 5.1m-278.6-238c0-4.8-2.1-9-3.5-13.5-.5-1.8-1.6-3.8-4.2-3.8m284 142.8c1.7 4.2 2.6 8.7 6 12m-30.3-49.5c-2.5-.8-6-1.3-7.3-.1-2 1.8-5 2.4-6.4 5.3-1.2 2.7-3.2 5.2-6.6 5.7M126.4 91c-4-2.1-8.9 0-12.8-3-.7-.5-1.6.2-2.2 1.5M855 251.3c-3.8 2.1-8 .7-12 1.1m78.4-61c-3.8 1.2-6.7 3.7-9.7 6.1-1.2 1-2.3 1.3-3.8 1.5-3.7.5-6.7 2.9-10.5 3.4-1.6.2-1.2 3-2.6 4M734.1 346.6c-3.3 2.4-8 5.9-9.3 9.9-.2.7.2 1 0 1.5M614.6 489.9c1.9-1.3 2.5.9 2.5 1.5.2 2.6 1.2 5.3 0 7.8-1.9 4.1-1.9 8.5-2.9 12.8M903 388.1c-1.8 0-3.6-.3-5.3.8-.2 2.7-.8 5.3.4 8.2 1 2.4 0 5-2.2 6.7-3 2.3-6.4 9.8-8.7 12.7M147 293.7c-.4.3 0 0-.4.4-3.1 3.5-6.6 5.8-11.6 4.9-3.3-.6-5.2 1.5-6.7 4.1-.5.9-1.5 1.8-1.8 2.6-1.4 3.6-4 4.6-7.6 4-1.4 2.7-.5 5.7-2 8.5-.8 1.4 1.4 3.9 2.4 5.9m484.5-151.4c0 1.1-.5 2.1-1.1 3-2.1 2.7-4 5.6-4.9 9m3.3-60.3c-.3 1.9.4 3.5 1.5 4.9.9 1.1 2.1 2 2.6 3.4.4 1.1 1.3 2.3.3 3.3-.7.7-1.7 0-2.6-.2-3.2-.4-6.4.4-9.5 1.3m157 268.2c-2.3 2.1-1.5 5.4-2.8 8-.7 1.5-1.4 2.8-2.5 4M714 311.6c-2.6-1.6-4.7-3.1-8.4-1-2.7 1.5-6.8 0-10.3 0-2.9-.1-5.7-1.1-8.6-.8M112.1 201.1c-1.5-.6-2.2.6-2.2 1.5 0 8-1.5 16 .3 24 .7 3.1 4.1 4.2 6.4 2.3m312 12c-.4 3.3.4 6.2 2.2 9 .9 1.4 1.2 3.2 1.6 4.8m229.1-37.4c-.6 4 1.2 7.7 1.1 11.6m10.9-13.5c-3.9 1.7-8.1 0-12 1.4-1 .3-2.5-1-2.2-2.9.8-5.2-1.1-10.2-.7-15.4m58 92.2c-.5.8-.7 1.8-1.1 2.6-2.9 5-2.5 8.5 1.5 12.7.4.4.7 1.2 1.5 1.1m-32.3-107.8c0 2.3 1.9 3.5 3.4 3.6 2.8.1 5.4 1.3 8.2.9M295.1 97.4c1.1 0 2.1.8 1.4 1.8-.6.9-1.4 2.4-1.3 2.6 2.5 5.5-2.3 5.1-5 6-7 2.2-7 2.1-7.1 9v5.6m339.8 27.1c-1.1 2-2.8 3.3-4.9 4.1-1.9.7-2.8 1.8-3.6 4.1-1.7 4.9-4.9 9.1-7.7 13.5m-14.9-70.8c0 2.4-.2 4.8 0 7.1.2 1.9-.5 3.1-1.9 4.1" class="st0"/><path d="M875.6 415.8c3.5 0 6.6 2 10.1 1.6 1.4-.2 2.1 1.6 3 2.6 4.3 4.5 5.1 10.5 2.3 16.5-.8 1.7-.3 3.5-.4 5.2 0 2.2-.8 4.4-2.4 6.5-1.7-1-3.9-.5-5.5-2M245.2 49.8c3.1.8 4.7 3.6 7.1 5.3 3.9 2.9 4.9 3.1 8.7 0 3.7.2 5.2 3.4 7.5 5.7 2 0 3.7-.8 5.3-1.9m-85 28c-2.4-.3-6.2 1.7-6.5 3.8-.3 2.4-1.7 3.2-3.5 4.1m266.3 192.1c2.3.2 2.3 2.5 3.3 3.8 2.2 3.1 5.3 9.2 9.4 8.9m343.4 29.5c-3.7 1.1-11.2 5.6-15.2 4.7m39.8-106.4c-1.4-3.6-.7-6.9.7-10.2 1.9.3 3.3.9 4.9 1 2.5.2 3.5 2.3 3.5 4.4s-2.4 2.3-4.2 2.2c-2.3 0-1.8-1.9-1.9-3.3m-247.1 56.9c-1.3 1.8-5.3 3.5-7.2 3.6-2 .1-4 .1-6 .3-2.6.2-5-.7-6-3.6-.5-1.5-1.1-3.3.4-4 1.7-.8 3.3-2.9 5.6-1.9 3.1 1.4 6.6 1.4 9.8 2.5.4.2 1.3.3 1.4.5 1.9 4.1 5.4 2.1 8.3 2.2m63-116.9c-3.1.6-4.5 1.8-5.2 5.6-.8 4.4-2.5 9.8-9 9.9-.3 0-.8.2-1.1.3-2.8 1.9-5.6 3.1-9.4 3.3-3.6.1-7.3 2.5-9.4 6.1-.3.4-.7.9-1.1 1.1-5.2 1.9-5 6.7-6 10.9-.8 3.7-2.3 7-6.4 8.2m256.8 153.8c0 1.2-.4 2.7 0 3.7.6 1.4 0 2.3-.9 2.6-3.8 1.4-4.3 5.1-6 7.9m-189 83.9c-1.2-1-13.8-10.5-14.5-10.1-.9.6 0 1.4 0 1.9-.6 4.5 0 9-.3 13.5 0 1.6.3 2.7 1.9 3.2M581.2 484c.7 0 1.2-.6 1.9-.8 4.4-1.4 5.3-.8 5.2 3.8 0 1.6 0 3.1 1.5 4.1 3.5 2.4 3.6 5.7 2.3 9.3M758.9 455c2.4 0 7.9-21.1 10.2-21.3 1.6-.1 2.8-.9 2.7-2.9-.2-2.3-2.5-3.6-3.3-3.2-4 2-14.1 6.7-18 8M637.1 219.5c-1.8-.6-3.4-.7-5 1-1.2 1.3-2.9 2.5-5.2 2.4-2 0-2.1 2.6-3.4 3.6m114.9-33.6c0 1.8.8 3.4 2.6 3.3 2.9-.2 4.1 1.7 5.6 3.6 3.3-1.6 6.5.9 9.8.2m75.4 11.6c1.1 2.2 2.7 3.4 5.2 3.4s1.4-.1 1.4 0c1.8 4.7 6.6 2.8 9.8 4.5m-111.7 7.1v.7c-.4 2.4-7.8 7.9-10.1 7.5-1.9-.3-3.6-.9-3.8-3.3-.2-2.3.6-3.5 3-3.8 1.3-.1 2.1-1.3 3-2.2m79.2 49.1c-1.4 1-2.4 2-3.1 3.7-1.4 3.4-5 5.3-6.6 8.7M82.9 177.2c6 .8 9.9 5.2 14.6 8.2m55.9-59.2c2.6 0 2.5 1.6 2.2 3.5-4.8-2.1-9.3 0-13.8 1.2-1.5.4-3 .9-4.5 1-2.8.2-5.7-.7-8.3 1.4-1.9 1.5-5.4 1-6.5.2-3.6-2.7-7.4-1.2-11.1-1.6-1.3-.1-2.6 0-3.7-.8m787.8 161.1c-1.5 2-3.7 3.3-5.7 4.8-2.4 1.9-4.3 1.3-5.9-1.5-.8-1.4-5.6-11.9-7.1-11.9M743.6 472.7c-1 1.3-2.5 1.9-3.8 2.5-3.1 1.5-2.1 5.4-4.5 7.2m19.2-236.3c2.7-2.9 4.3-6.4 6.4-9.9 1.9.9 3.6 2 5.3 3.1 3.2 2.2 3.5 6.4.7 9-1.6 1.5-3.8 2.4-4.9 4.5m103.5 236.4c-1.6 3.3-4.5 4.8-7.9 5.2-1.4.2-1.7 1.4-2.6 1.9M180 108.6c-4.9-1.5-8.1 2.1-9.8 5-2.2 3.9-3.9 5.6-8.6 4.5-2.5-.6-5.5 0-8.2.2s-5.2 0-7.5-1.5m252.3.8c1.1 3.9 2.2 7.8 4.5 11.2m533.7 162.6c-2.6 2-5.8 2.9-8.3 5.1-2.4 2.2-7.6-1.3-5.8 1.2m-26.4 158.2c-1.3 3.8-2.2 7.8-6 10.1M590.2 98.9c-5.1 1.8-8.3.5-10.5-4.1-1.2-2.4-3.1-3.8-6-3.4-1.6.2-3.1 0-4.5-.8-3.3-1.9-5.6-1.3-7.1 1.9m516 9.4c-1.8-2.3-4.3-1.8-6.7-1.9-1.4 0-2.8.3-4.1-.2m-826.9-56 4.8 4.8c-1.5 2.2-2.4 4.2-2.7 6.8-.5 3.8-1.5 4.6-5.8 5.3m680.2 347.6c-3.4 2.6-5.9 6.3-10.1 7.9m-45.3-153.9c2.6 1.6 5.6 18.3 3.2 19.7-1 .6-8-1-9.3-.6m-220.9-76.5c-.8.7-1.6 1.4-2.2 2.3-2.2 2.8-4.7 2.5-6.4-.8m165.3 236.3c3.5 4.3 7 8.6 12.7 10.1 1.7.4 2.2 2.2 3.4 3.3M232.1 259.6c-1.1-1.9-3.2-1.7-4-.7-1.5 1.9-3.5 2.2-5.2 3.3-1.5.9-4.4 1.1-4.4 4.1s-5.9.7-6.6-.4c-1.7-3.2-3.7-1.8-5.7-.7-.7.4-1.3 0-1.9.4-1.2-1.6-2-3.4-4-4.3-1.6-.7-1.7-2.8-1.8-4.4-.1-1.3 1.2-1.1 2.2-1.1m538.1 10.9c-1.9 0-3.8.2-5.6-.7-1.9-.9-3.4 1-5.2 1.1m-199.6-9.8c-1 2.1.2 3.4 1.9 4.1 5.3 2.2 11.1 1.6 16.5 3 0 0 8 2.3 8.1 2.2m626.7-146.4c-1 0-1.9 0-2.7-1.1-1.9-2.6-4.7-3.3-7.8-3m-219 270.8c3.5 2.3 7.6.4 11.5 1.5-.4 1.5-.2 3-1.4 4.2s-1.9 2.8-1.1 4.5c.9 2 2.8 1.4 4.5 1.5 1 0 1.7-.5 2.6-.4m-75-139c0 4 2.7 7.1 6.4 7.9 1.5.3 2.4-.3 3.4-1.1 1.4-1.1 3.3-1.4 4.9-2.3M582.8 466c2.2 5.2 3.1 10.5 2.6 16.1m66-295.6c-4.4-3-7.6-3.1-10.9-.4m225 376.1c1.2 3.2 1.3 6-2.2 7.9-.4.2-.6 1.1-.4 1.8M753.6 250.6c-2.3 1.1-3.4 2.8-4.5 5.2-1.8 3.8-2.8 8.1-5.8 11.4-1.6 1.7-.6 4.2-.8 6.3M158.2 129.6c1.8 4.1 6.1 3.8 9.4 5.2m381.4 344c-7.1-1-21.3-.7-26.6 4.4m-28.5-230c-2.4 3-6.5 1.2-9.5 3.3-1.4 1-3.1 2.2-5.2 2m459 72.3c.4 5.2-3.2 9-4.9 13.5-.5 1.3-1.1 2.6-1.8 3.8m-661.9-16.2c-3.6 1.5-6.4 4.6-10.5 5.3-.4 0-1.5 0-1.5 1 0 2.2-2.3 2.8-2.7 4.7-1.3-.8-2.6-.9-3.6-1.7m467.6-10.1c-1.8 3.5-5.5 3.4-8.6 4.1-3.2.7-3-2-3.7-3.7m60.6-43.5c-3.5-.2-7-.2-10.5.4" class="st0"/><path d="M576.8 492.9c-3.6-.9-6.9-1.7-11-.7-2.8.7-5.8-2.4-7.8-5.3-2.6-3.8-5.4-7.3-10.1-8.6m196.5-152c3.4 1.4 7.3.7 10.5 2.6.5.3 1.3.6 1.4.8 2.9 4.8 7.3 2.7 11.3 2.6M587.2 545.8c-.6 2-1.8 3.4-3.7 4.6-4 2.4-4.9 6.8-6.4 10.8m277.6-168.4c1.2-2.2 9.6 2.3 10.8 3.5s2.2 2.7 4.5 2.3c1.6-.3 2.3 1.3 2.6 2.6.3 1.5 1.3 2.4 2.3 3.4m56.6 4.8c5.7 6.1 13.4 8 21 10.1M843.8 269.7c.7-.7.7-.1.8.4.5 3.3 2.3 5.7 5.2 7.4.5.3 1.1 1 1.5 1.6m70.5 6.8c1.7-.9 7.8-2.1 9.7-.5.2.2 5.1 5.7 5.2 6 1.2 2.2 6.3 2 8.7 2.2m-105.4-37c-2.3 1.9-3.8 4.4-5.8 6.5-2.7 2.9-1.6 7.1-.2 10.7M540.4 51.3c4.1 1.9 4.8 3.6 3.8 9m96.3 76.4c1.8 1.9 3.7 3.4 6.3 4.2 2.7.8 4.3 2.9 4.5 5.9m328.2 68.6c.6 3.7.7 7.4.2 11.3-.3 2.7.4 5.7.6 8.6 0 1.6 1.4 2.8 2.9 2.9 2 .2 4.8 13.2 5.8 14.6m-157.6 23.3c0 3.6 1.7 6.7 2.4 10.1m-265.3 43.4c1.4 2.3 3.7 1.3 5.6 1.5 1.5 0 9.2 6.7 10.7 6.7M865.1 442c1.6 4.2 5.5 3.9 9 4.5M375 57.6c4.9-3 17.9-2.2 22.9 2 2.2 1.9 4.8 3.2 7.2 4.8m488.5 128.5c-.4 1.2-.3 3.2-.8 3.6-3.5 2.6-1.7 6-1.7 9.1s.3.7.3 1.1m12.4 51.8c-2.1 1.8-4.9 2.2-7.1 1.3-3.9-1.6-7-.4-10.2 1.3-1.5.8-3 .2-3.7-.5-1.3-1.3-2.6-1.5-4.2-1.4m-31.8-43.8c-1.4-1.2-1.7-3-2.7-4.5-1.1-1.7-2.2-3.2-4.8-3.6-3.3-.4-5.7 0-7.5 2.8m280.4-131.4c2.7 3.2 7 3.6 10.2 5.8 1-1.6 1.5-3.2 2.2-4.7M715.5 469.3c-2.8 3.1-3.2 6.5-1.1 10.1m-72.8-38.9c-3-.7-5.3 1.6-7.8 2.5-1.6.5-3.6 1.3-5 2.8m-449.6-357c-.9 3.5-1.4 6.8.7 10.2.9 1.4.8 3.3-.3 4.8-.9 1.3-1.3 2.7-1.1 4.3m398.6 285.6c1.4 8.1 5.5 15.2 8.2 22.8M801 261.8c-6.4.8-12.6 2-17.6 6.4M984 359.6c-2.9 1-5.4 2.7-9.1 1.7-2.7-.7-5.6 1.6-8.6 2.1-1.3.2-5 6.4-6.4 6.1-.8-3.8 2.8-13.4 3.7-17m-209.1-71.9c1.2-1.2 2.3-2.4 3.7-3.4 3.7-2.7 7.3-1.7 8.6 2.7.7 2.4 1.4 4.9 1.1 7.5 0 1.4 0 3.1.6 3.6 3.5 3.7 2.4 8.2 2.5 12.5 0 5.7-2.1 11-3.3 16.5-.7 3.2-.8 6.5 0 9.7.2.8 0 1.7 0 2.6M593.2 501.9c-1-2.3-3.2-2-4.4-1-3.4 2.9-7.1 2.2-11 1.8m116-234.9c1.6 2.6.3 5-.3 7.5-.6 2.4-2.6 4.9-.4 7.5m-144.9-12c.8 2 2.1 3.1 4.5 2.7 1.5-.3 3 0 4.5 0m329.9 269.3c4.9 1.1-1.8 10.2-1.2 12.5-3.8-1.6-5.8 7.5-7.5 8.9m-249.9-75c-.5.8-1.7 1-1.5 2.2.7 4-1 7.7-1.5 11.6-.2 1.8-2.4 3.1-1.1 5.2m349.5-123.9c-3.4-1.8-6.8-1.5-10.1 0-2.4-1.4-4.5-3.5-7.8-3.5-.9 1.3-2.3 2.5-3.3 4.1-2.2 3.6-4.1 4-9.1 1.4-2.4-1.2-4.4-1.3-6.8-.7M111.2 200.8c-1.1-6-4.9-10.3-9.2-14.2-1-.9-2.7-.4-4.1-.4m477.3 72.3c1.4 3 4 1.4 6 1.4 5.5 0 7.9 2.2 7.9 7.6s-.5 6.7-.8 10.1M799 184.4c-1.9 5.4-5.9 21.5-2.5 25.7m160.9 132.3c-2.8 2.5-6.4 4-9 6.7M821.2 449.5c-2.4 2.9-1.1 6.5-1.9 9.7M547.9 78.3c2.8 2.9 6.4 4.5 10.1 6 2.3.9 4.4 2.2 5.6 4.5m359.6 306c1.1 1.7.6 3.5-.4 4.8-1.7 2.1-2.8 4.5-4.1 6.8M658.1 216.5c-2 1.4-2.5 3.3-2.3 5.6.2 2.2 0 4.5 0 6.7m-20.2 130c-1.6 0-3.3-.2-4.5 1.1-2.1 2.4-4.9 0-7.1 1.1m-9.4 10.4c0 .8-.6 7.4 0 8 2.9 3.3 4.9 7.3 7.8 10.5 1.7 1.9 3.5.7 5.3.7M281.6 192.9c1.3 2.1 3.4 3.3 5.3 4.9 1.2 1 2.2 2.6 1.4 3.7-1.4 1.9 0 3.3.1 5M901.5 436c3.2 1.6 4.8 3.8 3.1 7.5-.7 1.6.8 2.7 2.2 3.3 1.7.8 3.1 1.8 4.5 3M626 230.6c-1.6.8-5.8 3.9-7.1 5.1-1.5 1.4-3 2-5 1.8m-.8-93.7c-.5-2.5-2.8-4-3.8-6.4-.6-1.5-2.1-1.1-3.3-1.1v.4c0 .3 0 .5.4.8m-29.3 214.9c-3.3-.2-12-4.1-14.5-1.7-2.9 2.7-7.3 8-7.5 12.7m370.4-91.8c-.6 1.1-1.2 2-2.6 1.9-2.3-.3-4.5.5-6.8.8M405.2 64.6c3.1 1.6 14.7 1.6 17.9 1.8m99.1 348.8c.4 3.7 8.4 3 10.4 3.4 3.8.9 11.4 2.2 14.8 3.9m-18.6 40.1c0 1.4.6 2.3 1.9 3 3.3 2.1 4.7 6 7.8 8.3.7.5 1.5 1.7 1.2 2.9m361.8-125.4c4.7.7 8.6-2 12.7-3.5 3.6-1.3 6.8-2 10.2-.2 1.9 1 3.8.6 5.7.7 2.6 0 3.8 1.1 3.8 3.8s-.4 5.3 1.3 8c1.1 1.8-1.8 3.6-1.8 5.9s0 1.3-.3 1.9M474.8 49.8c.6 2.6 3.4 2.5 4.9 4.1.4.5 1.4.4 1.8 1.2 3.2 5.3 7.8 3.8 12.4 2.6 1.8-.4 3.3.3 4.9 1.1 1.3.7 2.6 1.5 4.1 1.1m274.5 256.6c.3-1.5 1.1-2.6 2.6-2.6 3.9 0 7.8-.2 11.6-.8.3 0 6 4.2 6.4 4.5 1.6 1.4 2.3 3.7 4.5 4.5M678.4 493.7c1 3.3 2.8 5.9 6 7.5M399 235.2c-.5 3.9-1.9 7.8.4 11.6M180 401.5c-3-1.5-6.9-1.3-8.8-4.7-1.3-.1-1.9.9-2.9 1m405.8-271.2c-1.5 2.1-2.6 4.5-5.6 5.4-2.3.7-2.6 4-4.9 5.1m2.6 249.6c5.6 5 4.8 13.4-1.9 16.2-2.2.9-3 2.3-3.7 4.2m19.5-309c-1.1 1.3-2.8 2.1-4.1 1.4-2.1-1.3-3.6 0-5.3.5m-61.5 291.4c-3 1.7-6.6 2.4-8.6 5.6M364.1 153.6c-1.6 3.7-4.1 6.7-7.1 9.4m485.2 285.7c-2.1.2-4.3 1.4-6.1-1.1-.9-1.2-2.2-.2-3.3.3m8.7-86.8c-.4 3.3-.6 6.3 2.6 8.7s-.2 3.2-.3 4.8M665.6 506.4c-4.2-2.5-5.4-2.6-9.8-.4M888 448.4c1.1 1.6 1.2 3.1 1 5.3-.3 3.6-1.6 7.4 0 11.2 2.4 5.6 2.3 6-4.1 10.1m-472-238.6c-3-3.4-4.7-3.8-8.2-1.9-1.2.7-3.9.5-5.8-.4M298.6 50.5c.8 6.6 5.1 26.3 10.8 30.4.8.6 1.4 1.4 2.2 1.9m117 129.6c.3.9-.6 1.7-.4 2.7 3.2 0 4.6 2.1 5.2 4.8.5 2 1.7 2.8 3.3 3.9 3.3 2.2 7.9 2.5 9.8 6.6m302.4-33.7c0 .9-.5 1.5-.7 2.3-.7 2.3.3 3.7 2.9 4.1 1.6.2 3.3-.5 4.9.4m-25.9 45.2c-.3 4.9-2.6 9-5.4 13-3.2-1.4-6.5-1.7-9.2-3.6m271.5-2.3c.9 1.6 1.5 3.3 4.2 2.4.9-.3 2.8 0 3.3 1.7.8 2.4 2.8 3.9 4.5 5.6M706.5 395.6c3 2 6.7.8 9.8 2.5 2.4 1.3 4.8 2.6 7.4 3.5 1.5.5 1.2 2.3 1.9 3.3m114.8 38.6c1.3.3 1 1.3 1.1 2.2.6 4.1 2.6 5.8 6.7 6 2.4.1 4.7 1 7.1.8 1.9-.2 3.8.1 5.3-1.5 1-1.1 2.4-1.3 3.3-.3 1.9 2.1 4.6 1.5 6.8 2.4M702 296.7c1.3 3.2 2.9 6.2 4.1 9.4m98.7-49.9c-1.2 1.5-1.9 3.2-2.7 4.8-.5.9-.4 2-.2 2.3 2.1 2.5 2.4 5.8 4.4 8.3m-85.5-8.3c-.7.6-1.1 1.3-1.1 2.2 0 5.5-.6 6.4-5.8 8.3-.6-.5-1.5-.9-1.7-1.9 0-.7-.7-1.2-.8-1.9-3.2.8-7.1.2-8.2 4.6m450.7-231.1c-2.9 1.6-6.5 2.3-8.3 5.6-.3.6-1 .3-1.5.4M417.4 425.9c-1.2 3.4-.3 7.5-3.7 10.2-1.2.9.5 3.3-1.5 4.1m575.3-153.9c-.3 1.8 8.4 13.3 9.6 14.5 1.6 1.5 2.3 3.8 1 5.5-1.6 2.1 1.2 4.3-.6 6.1M786 332.6c0 .8-.2 1.4-.8 1.9-5.4-2.7-11.4-2.2-17.2-2.3m-76.5-43c-.9 1-1.7 1.6-3.4 1.2-3.8-.8-7.8-.6-11.6-1.6-3.1-.8-3.8 1.8-4.8 3.7-.7 1.3-1 2.7-.8 4.1m283.1 1.9c-4 4-7.2 8.6-10.6 13.1-1 1.3-2.9 2-4.4 1.1-1.2-.7-24.4-2.9-25.2-2.7M582.3 520.5c0 3.2 1.7 12.4-1.1 15.1M469.9 243.1c1.5 3.1 2.4 6.5 1 9.7-1.5 3.7-2.5 7.3-1 11.3m9.5 15.5c-.6-1.9-7.2-.9-8.4-.9-3.4 0-6.6 0-9.4-2.6-1.6-1.5-3.9-.7-6-.5-1.6.1-2.9 1-4.5.8M765.4 463c-3.4-1.9-2.8-6.4-5.6-8.6-.6-.1-1.1 0-1.5.4-2.9 3.4-6.8 5.5-10.9 7.1-1.4.6-3.4 2.3-3.2 2.9.8 2.9-1.4 6 .3 8.6.9 1.4 13.3 26.1 15.9 26.3M392.9 117.6c.3 2.4-7.9 3.4-10.8 4.5-2.4 1-5.3 1.1-7.1 3.3m391.1 284.8c-.8 1.6-.6 3.3-1.7 5-1.6 2.5.9 5.4 1.8 8.1.4 1.4 1.4 2.6 1.8 4.2m-57.4-42.8c.9 3.4 2.3 6.5 5.2 8.6m-65.9 118.4c1.1 1.3 2.5.7 3.7.4 2.6-.7 4.8-.5 6 2.3M645 216.1c-1.3.7-2.6 1.1-4.1 1.2-2.7.1-3.6 1.4-2.6 4.1.9 2.5 1.2 4.9 1.1 7.5m-462-189.3c-.6 2.3-6 5.7-6.7 8-.3 1.1-1.1.7-1.6 1.1m469.1 363.8c.6 3.3 10 16.9 12.4 19.4m131.6-161.1c2 1.3 5.3 2.2 5.4 4.1.2 2.8 1.1 6.1 0 8.5s-1.2 4.5-1.3 6.8m16.9-59.8c2 1.9 1.9 4.1.7 6.4-.4.8-.8 1.7-.7 2.6M660 249.5c-.3 1.8 0 3.6-1.8 4.9-.9.7-1.2 1.6 0 2.6.5.4-.2 1.4-.4 1.8-2.9 4.4-2.1 9.5-2.9 14.3m-86.8 104.8c-.3 3 .7 6.1-.8 9m17.3-66.6c-4.2 0-7.3 3-11.2 3.7m139.8 76c-2.6 2.9-6 1-9 1.5" class="st0"/><path d="M885 443.1c-2.4 3.1-3.7 3.4-5.5.7-1.4-2-4-2.2-5-4.4-.4-.9-1.6-.5-1.8-.3-1.4 1.1-3 .5-4.5.7-.5 0-1.4-.1-1.4 0-1.4 3.5-4.7 1-6.8 2.2M480.4 44.6c5.1 1.9 8.7 5.7 12.4 9.4.9.9 1.4 2.1 1.5 3.4m440.9 331.4c1.6 2.7-.2 5.9 1.5 8.6m-109.1-70c-2.9.2-5.8-.5-8.6.7m160.8-112.8c2.1 4.1-9.1 10.3-9 14.3m-13 52.8c-.8 4.5.9 9.4-2.2 13.5m-1.6 1.5c2.2 2.9 6 2.2 7.7 1.2 4.2-2.4 8.2-.2 12.1-1.3 1-.4.7-1.6.8-2.6M868.7 422.9c-4.5-.3-9 .4-13.3 1.7-4.2 1.2-8 2.1-11.6-1-.7-.6-1.2-.7-1.9-.7-3.3 0-8.2 4.5-8.2 7.9s-.5 1.8-.8 2.6M744 349.9c-.9-.3-1.4-1-1.9-1.9-1.5-2.5-3.6-2.8-6-1.1m-136-101.7c-3.1 0-7.1 5.6-9.5 7.2M735 211.3c3.9-.2 5 3.8 7.7 5.5 2.8 1.7 7.4 5.5 8.4 9.7m-102.3-16c3.4 3.4 7.4 3.2 11.6 1.9 2.2-.7 4.4-1.1 6.8-1.2 1.9 0 .9 1.2 1.1 1.9m-10.2-58.8c-1.2.4-2.2 1.3-3.3 1.9-2.6 1.5-4 3.6-2.3 6.7.6 1.1.5 2.2.2 3.4m-39.2 112c-1.7.5-3.5.5-5.2.3-1.6-.2-2 .8-2.3 1.9M93 46.1c.4-1 1-1.8 2.6-1.3.4 2.5 2.5 4.4 3.4 7 .8 2.3 2.1 4.4.9 7.2-.5 1.1-.4 2.8 1 4.1 3.2 3.3 3 4.5-.3 7.4-.8.7-1.4 1.8-2.6 1.9M782.2 262c-1.9 2.3-2 2.9-.7 6.5.9 2.4 0 4.2-2.3 4.4-4.7.4-8.7 2.6-12.7 4.6m185.3 116.9c-3.1 2.2 2.8 22.2 1.8 25.1M732 492.9c-3.4 3.4-3.6 8.2-5.1 12.4-.7 1.8-1.8 3.5-2 5.6 0 1.3-.5 2.5 1.2 3M413.6 312c-1.4 3.6 4.1 5.8 5.7 8.4m29 81.9c-4.1-1.5-6.5-1.1-8.4 1.5m-222.8 30.3c-4.1.8-7.8 0-11.2-2.2m250.6-233.6c.3 4.1 2.2 9.5 5.8 12.3.4.3 3.4 7.4 2.3 8.6m69.1 123.3c-2.7 0-7.3 3.7-9.6 5.3-6-1-6.6-.8-7.3 2.7m-223.9-84.2c5.1-2 6.2-2 8.2 3.8.4 1.2.9 2.1 1.6 3 3.7 5 3.7 5.4-1.1 9.7m404.3 101.5c-1.5.7-7.2.1-8.1 1.4-2.1 2.8-4 5.9-6.6 8.3m34-86.8c.6.1 1.4.2 1.8.4 4 2.2 7.9 2.1 11.7-.4" class="st0"/><path d="M972 226.2c.9.2 1.4.8 1.9 1.5 1.5 2.5 3.4 2.5 5.6 1.1M433.9 411.4c-3 3.4-14.3 10.2-14 15.3 0 1.1-1.1 2.1-2.5 1.9m67.5-15.4c3.1 1.6 3.9 5.7 7.5 6.8.7.2 1.6.2 2.3.7m239.2-139c.8 1 1.9 1.7 3 2.3 4.3 2.3 4.7 3 4.1 7.5m-141.8-69c-1-.7-1.6.2-1.6.8-.5 3.4-2.6 6.6-.9 10.1.3.7.5 1.4.3 1.9-1.3 3.3 3.3 7.2 3.2 10.4m141.9-19.3c.3.7 11.1 10.9 12.4 10.7 1.9-.2 3.7 0 5.6 0m-660-147.2c-3-.4-4.5 1.4-5.6 3.7-.4.9-6 8.7-6.4 9m872.3 293c-3.8 1.1-7.7-.8-10.9-5.2m-15.4-117c-.7-.8-1.7-1.6-2.6-1.4-4.3 1.1-7.3-1.9-10-4-2.4-1.8-4-1.7-6.2-.6-.5.2-1 .4-1.5.8M612.7 513.5c-1.2-4.3-12.4-8.5-15.1-11.5-1.7-1.9-5.8.3-6.5 3.7-.6 2.9-2.4 4.5-4.2 6.3M430.6 250.2c-1.9-3.7-12.2-9-15.1-12-.6-.6-1.2-1-1.9-1.5m25.2 77.2c.3.6-.6 1.3 0 1.9 2.4 2.5 1.4 5.4 1.1 8.2m296.2 5.6c2.7.5 5.3 2 8.2 1.5m218.7-2.2c-1.1 4.3-.2 8.8-1.5 13.1m-61.9-91.4c.6 3.4 3.4 5.5 5.1 8.1 1.7 2.7 3.7 5.5 6.6 7.2 2.9 1.8 2.4 5.4 4.1 7.9.6.9 0 1.6-.4 2.2-1.4 2.3-3.3 4.4-2.3 7.5.2.7-2.7 10.7-3.4 10.8m11.3 73.5c-1.7 3.8-1.5 8.3-4.7 11.7-.9 1 0 3.6 0 5.5m-130.7 74.6c-1.3 1.7-3.4 2.1-5.3 2.6-4.3 1.1-8.7 1.9-13.1 1.8-2 0-3.1 1.6-4.9 1.8M358.2 143.6c.3-2.3-9.3-11.5-11.3-11.7-1.1-.1-5.9-2-7-2m424.3 289.2c-3 .6-14.7-6-16.8-7.7M335.6 241.2c-2.7.9-4.4 3.6-7.5 3.8-1.8 0-2.8 1.9-2.8 3 0 2.7-2.1 2.5-3.5 3.4m264.3 165.7c-.3 1.5-.7 3.1-1.6 4.2-1.2 1.6-1.3 3-.3 4.6.6.9.7 2.2.3 2.9-1.4 2.3-1.5 16-1.6 18.4m-116-176c-3.4-1.2-4.4-.6-6.8 3.7M608.6 288c-.4-1 1.2-1.3.7-2.3-3.4-.7-9.4-.5-11.7.4 2.9 4.7 4.2 10.1 5.7 15.3m-302.2-46.7c-1.4 1.2-2 2.9-1.4 4.5.8 2.3.1 4.2-1.2 6m295.9 69.1c.6-1.8 2-9.4 0-11.4-1 0-2.6-.4-3.1.8-1.2 2.7-3.4 1.8-5.3 1.8m360.5-118.4c-2.6-.5-5-.3-7.5.7-2.9 1.1-4.6-1.4-6.3-3.3m-58.9 355.9c-4.5.5-8.9 2.6-13.5.8-.8-.3-1.6-.6-2.1-1.5" class="st0"/><path d="M649.1 274.2c-.2 4.1-36 14-40.9 13.2m242.7 159.1c-1.3-1.3-2.8-2.4-3-4.5 0-1.2-.8-2.1-2.2-1.9M722.2 230c-4.6.3-4.7.3-5.2 4.9-.2 1.4-3.4 4.5-3.3 5.9m-417.8-44.5c-1.7 2.4-3.7 4.4-6.8 4.9M609 320.4c-1-.3-1.7.2-2.7.4-1.9.5-3.8 2.3-6 .2-.8-.8-2 .4-2.9 1m-17.3 51.8c0 2.7-2 5.1-.8 7.9M551.4 332c-2.9.3-10.5 0-13.3 1.7-.9.5-.6 1.1-1.1 1.6m-16.1 199.2c0 .6.4 1.2.4 1.9 0 3.5-.6 7.1 1.8 10.1m268.6-135.8c0 2.2 2.1 10 3 11.8s1.2 3.7 1.1 5.6m19.4 20.3c-1 3-2.9 5.5-4.9 7.9M924.5 273c.3.2-2.8 7.7-2.8 8 .5 2.7-1.6 14.8.9 16.1m54.6 84.2c-2.1-.1-2.5 1.4-3 3-2.5 7.5-2.7 7.5-10.1 4.5M631.2 512.6c-.3-2.5-1.1-6.8-3.4-5.5-2.7 1.5-9.8 2.7-12.6 4.2m-13.3-21.4c1.2 1 1.9 2.2 1.9 3.7 0 3.8 1.7 6.9 4.5 9.4m20.9-188.7c-2.6-1.2-18.4 5-20.7 7.2m.5 182.9c1.4 3.9 5.8 10.2 6.1 14.1M918 245.2c-2.5 1.4-4.2.2-6-1.7-3-3-3.7-2.5-6.1 1.4-1.2 1.9-1.3 5.6-5.1 5m-321.4 14.9c-2.3 1.8-5.1 2.1-7.9 1.9m12.7 46.8c-.3-1.1 1-1.8.7-2.8-.5-1.8-1.4-3.2-3.7-2.5-2.6.8-5.2 1.5-7.9 2.3m-462.7-82c-2 3.3-5.3 6-4.5 10.5m211.9-3.8c1.8-.8 3.8-.5 5.6-.3 2.6.3 2.5 2.4 2.3 4.4m534.3 248.4c2.5-.2 4.8.4 7.1 1.2 2.6.8 5 1.4 6.8-1.5.4-.7 1.4-.8 1.9-1.7 2.7 1.2 5.9 1.5 7.8 4.3" class="st0"/><path d="M884.2 475.7c-1.6 2.4-8.9 7.1-10 10.3m-57.1-238.4c-.2 4.3 1.8 8.4 1.1 12.7 0 .2 0 .5-.4.7m-197.9-2.9c0 2.8-6.5 17.2-6.8 19.8M112 73.4c.5 0 11.3 3.3 11.7 2.7 1.7 3.4 4.9 2 7.5 2.2m492.4 34.1c2.1 1.2 3.9 2.9 6.4 3.4 1.3.2 2.4.3 3.4-.8m20.2 75.3c-4.9 1.2-9.3.5-13.1-3-1.1-1-1.8.2-2.6.4M767.2 333c0 2.6-.3 5.2 1.4 7.5 1.4 1.8-.3 4.3.8 6.3m-245.2-294c2.8 3.2 5.6 6.4 10.5 4.5m282.1 165.9c2.2 2.5 4.9 1.5 7.5 1.1M126.4 321c-1.4.6-2.7 1.4-4.1 1.9-4 1.4-4.2 2.2-2.3 6.4v1.1m467.2 181.1c.2 1.8-6 6.5-4 8-.6.4-.5 1.5-1.5 1.5m155.9-13.5c-3.8 1.6-7 4.3-10.9 5.6m-111.9-1.2c-.5 4.3 2.1 11.6 3.1 16 .6 2.6-1.3 5.4-1.7 8.2m132.9-201.3c2.2 1.4 17.3 10.8 19.6 11.7M675 491.1c-3.9.7-4.3 4.4-5.5 7.2-.9 2.1-1.6 4.4-2 6.7m-541-414.1c1.9 1.9 8.3 6.1 9.3 8.7.4 1 1.1 2.1.7 3-1.5 2.6 0 5 0 7.5m748.9 286.2c-2.2-1.4-4.5-2.1-7.1-1.1M255.8 58.1c.7 2.4-2.2 4.7 0 7.1m319.1 194.4c-4.1.4-12.6.3-16.7-.7m357.6 77.8c.6 2.6 1.9 4.8 3 7.1m150.7-117.6c-2.4 0-4.7-1.4-7.1-.4M840.8 350.2c-.8 2.4-.5 5.1-2.2 7.1m-335-301.5c-.7 4.5 0 5.4 6.8 8.6m558.7 89.6c-1.5 4.6 6.9 6.7 8.9 7M961.9 299.3c2.2 3.5 6.4 4.8 9 7.9M859.7 452.5c1.7 2.8-.3 4.8-1.3 7.1m-372.2-45.4c.6 2.3-4.5-5.5-5.9-4.8-3.5 1.7-6.3 4.2-8.2 7.5m258-92.9c1.5 2.4 4.8 4.1 5.1 6.5M175.1 132.2c-.5 2.3-2.4 1.4-3.8 1.5-1.7.1-3.4 0-3.7 2.3m407.3-65.7c1.7 1.9 13.2 25 13.6 27.7m304.7 160.5v-4.1c-2.8.2-4.7-3.1-7-1.8s-4.6 3.4-5 6.6m-292.1 206c1.6 2.2 4.1 1.9 6.4 2.2.5 0 .4-.9.2-1.4" class="st0"/><path d="M119.7 329.1c3.5-.2 8.8 10.3 9 13.3 0 1.2-.2 1.8-1.5 2.4-2 .9-7.3 13.7-9.4 13.7M309.4 54.3c-1.9 1-4.1-.3-6 .8-.2 5.7-1.4 6.4-7.1 4.8h-1.5m109.8 213.2v1.1c1.6 7.4-.5 8-6 9m104.6 161.4c1 2 2 3.7 4.1 5 1.3.8 2.6 2 2.7 4 0 2 2 2.5 3.3 3.4 1.2.8 7.3 2.7 8.3 4m455.3-51.6c-.3 0-.6.1-.7 0-3.8-4.7-7.5-2.5-11.3 0-.4.3-.8.5-.4.2 0 0-10.3 7.9-10.2 8M212.2 60.3c-1.1 1.2-2.4 1.9-1.6 4.2.6 1.7-.7 3.7-1 5.6m770.3 124.3c1.8-1 1.9.6 1.8 1.5-.4 2.4 1.1 3.7 2.7 4.9M112.1 317.6c-3.6.5-1.3 4.1-3 5.6m476.3 40.5c-1.9 2.6-1.8 5.7-2.2 8.6m135.3 107.9c-3.2-1.9-6 .5-8.5 1.4-4.7 1.6-24.1-7.9-28.5-10.2-.7-.4-.9 20.6-1.5 21.8m-24.9 13.2c-2.1 1.6-5.1 2-6.1 5.2-.3.9-2.2 1.2-3.6 1.3-1.4 0-3.8-.4-3.4 2.5m-52.9-238.2c1 .7 2.3.8 3.4 1.4 3.3 2.1 6.6.7 9.7-.7 1.7-.8 1.5-2.3.7-3.3-1.1-1.5-2.4-2.8-4.2-3.8-.8 0-1.3.6-1.8 1.1m-35.1-5.2c0 3.2 3.5 3.6 4.9 5.7 1.6-2.1 0-4.7 1.1-6.8m-41.3 112.3c-3.1 2.4-6.2 4.6-8.4 8.1-1.5 2.4-5.4 2.5-7.7 4.6m284.2-214.9c-.6 2.9-3.5 3-5.2 4.5" class="st0"/><path d="M106.9 348.5c4.1.7 5.4 1.9 5.6 5.4 0 2.9 2 3.4 4.2 3.7 1 .2 1.9-.7 3-.4m517.8-48.5c1.5 3.5 7.3 3.5 10.7 3.6m-206.1-38.5c-1.7-2.6-4.6-.8-6.8-1.9m178.9 269c-3-3.2-5-3.5-8.6-1.5m64.9-109c.6 2.5 0 3.7-1.8 3.2-1.7-.5-2.6.3-2.5 1.3 0 1.3-1.2 2.8.2 4.2 1.2 1.1-3.2 17-2.7 18.7M116.6 230.4c4.2 5.4 3.5 11.5 2.2 17.6m212.3 52c-1.1 1.2-1 2.7-1.2 4.1-.2 2.2.9 2.5 2.7 2.3m339.8-16.1c-1.9-1-3.2-2.9-5.5-3.8-1.8 1.4-3.1 4-6.1 3.4m-19.9-55c1.3.3 2.6.9 3 2.3.8 2.9 3.7 2.5 4.8 1.7 2.3-1.7 4.8-1.5 7.3-2.1m-210.1 41.1c-.6 0 3.5-.3 3.1-.4-3.8-.5-9.2 3.1-9.9 6M735.4 191c2.9 2.1 6.6 1.1 9.8 2.2M582 536.4c1 1 1.9 1.9 2.3 3.4.6 2.1 1.4 3.8 4 4.7 3.2 1.1 2.7 4.5 2.7 7.3m9-328.6c2.2 2.9 3.9 5.7 4 9.7 0 2.5 1.8 5.1 2.4 7.9m2.6 1.6c-4.2-2-4.5-1.9-9 3m260.6 35.9c0 3.2 3.4 6.9 7.9 7.7 2 .4 2.8 1.4 3.7 2.8M629.6 180.5c2.1 4.5 1.4 6.6-2.2 7.1m-321.8 91.5c1.7.2 3.1.9 4.1 2.3 1 1.3 1.9 2.1 3.8 2.4 3 .4 2.4 2.7 1.5 4.7m-66.7 121.8c-2-1.3-9-7.1-10.3-3.4M587.6 92.5c0 .7-.2 1.5.4 1.8.6.4 1.8.6 1.8 1.2.2 5.5 4.3 4.6 7.6 4.4s6.5.3 9.8 0M144.8 288.4c.7 1 2 1.5 2.3 3 .7 3 3.1 3.4 5.1 2.2 3.4-2.1 6.3-1.6 9.6.2-1.4 2.3-2.1 4.9-3.9 7m276 3.7c3-1.7 2.6.5 2.6 2.2s-.4 4.3 1.5 6m4.9 91.5c-3.4-.5-5.5 2.5-8.6 3.1-2.6.5-1.9 3.2-1.9 5.1M347.2 95.9c-2.3.3-4.2 1.8-6.4 2.2m75.1 355.5c-3.4.6-3.1 3.5-2.9 5.6.3 3.3-1.1 5.6-3.1 7.9-2.9 3.4-4.9 7.1-2.1 11.6m40.3-241.2c-.8-1.4-2.4-2.7-1.1-4.5 1.5-1.9 3.3-1.5 5.2-.4 1.6.9 3.3.5 4.9-.3m-141 53.9c2.3.9 5.2.9 4.3 4.9-.3 1.3 5.3 3.2 7.7 2.5 2-.6 2.3 4.8 2.7 6.7m490.1 121.5c1.7 1.1 2.2 3 3.4 4.5 1.5 1.8 3 3.4 5.6 2.3M589.1 515c.6 3.5 8.2 2.1 10.4 1.7m582.1-456.4v12m-587.5 429c.5 2.4 5.4 12.6 6.1 14.8 1.6.2 2.3-1.4 3.6-1.5m-15-14.9c-2.2-2.6-5.7-2-8.2-3.7m601-358.5c-.5 1.7 1.3 4.1-1.5 5.2m-656.5 340c-3 2.1-12.3 5.9-13.6 9.8m190.9-94.7c-1.8-1.3-3.9-1.2-6-1.1M572.6 52.1c1 .3 2.1.6 3 1.2 2.7 1.8 5.1 1.4 7.5-.5.5-.4 1-.3 1.5-.3m-6 2.6c-.5 2.1 1.6 3.9.8 6m-174-4.2c-2.4.8-2.7 3.1-3.8 4.9m289.5 458.1c1.4 1.6 8 2 8.9 4.4M295.9 106.4c3.9 2.5 8.5 4.2 11.6 7.9M696 289.9c.8 2.3 2.8 3.8 3.8 6M622.9 324c-3.5-.8-5.4 7.7-7.7 9.8m50.8-77.6c-.5-.9-.3-2-.4-3 0-4.5-.8-5-5.6-4.1-2-.6-2.2-3.1-4.1-3.7m-259 23.9c-2.5 3.4-1.2 7.3-.3 10.4.8 2.9 1.6 5.2.1 7.9M632.2 209c2.7 2.4 4.9 5.2 6.8 8.2m22.1 55.9c-3.7 1.5-7.5.2-11.2.7m310.5 91.9c-4.3 1.1-18 6.2-17.3 11.9m-67.1 64c-.9 2.4-1.8 4.8-.8 7.5.4 1.1.3 2.5-.3 3.7M111.4 73c-3.4 0-6.8-.2-9-3.4m727.5 372.8c.7.6 2.9-9.9 3.4-9.1 2.4 3.3-.2 15.2-3.4 18.1M192 77.9c-2.1.7-3.5 2.7-5.6 3.4-1.2.4-2.5.8-3.7 0m32.9-42c3.9 2.2 4.1 2.6 2.6 8.2-1.4 0-3 1.4-4.3-.4m199.7 250.3c-1.8.8 1.1 14.2-.5 15.7m147.5-42.7c-3-.4-2.9 2.3-2.8 3.7 0 1.8 0 3.6.2 5.4m-417.4-6.4c0 2.6 3 2.8 3.8 4.9M969 391.4c-.2 5 .3 9.9 1.9 14.6M303.8 75.9c-2.7 0-5.9 2.8-7.9-1.3m291 319.1c-1.4-4.1-4.5-1.7-6.7-1.4-3 .4-6 1-9 1m244 27.7c-1.7-1.1-3.8-.6-5.6-1.1m218.3-288.4c.7 4.2 3.1 6.9 6.8 7.5 1.5.2 2.8.7 3.4 2.3 1.5 3.8 4.2 3.4 7.1 1.9m-57.3 141.6c-5.5 2.2-11.8 15-14.4 20.9m-381 3.7c-2.6-2.7-5.5-2.8-8.6-1.1m6.3 9.3c2.3.8 2.2 3.2 3.4 4.9m119.3-62.2c.9 2.8 0 5.5-.4 8.2m-279 10.2c-2-.4-3.7.7-5.6.7m218.2-71.9c1 1.4-.3 2.5-.4 3.7-.4 2.5-.7 4.6 1.5 6.8 2.8 2.9 4.9 6.4 3.5 10.8m65.2 92.1c-2.7.8-13.5 7.8-16.3 8.1M586.5 444.2c1.1 4.6 5.4 3.2 8.2 4.5M909 375.3c1.4 1.6 4.2.4 5.2 2.6M826.5 254c-.7.9-1.6 1.6-2.6 1.1-2.1-1.2-2.9 1.2-4.5 1.2m106.1 186.8c-.8-1.8-.7-4.4-3.8-4.1m-374.6-16.9c.7 3.2 3.5 3.9 6 4.8.7.3 8.9 3.3 9.7 3.4m-367-350.1c-.8.5-1 1.6-2.3 1.5-3.1 0-4.5 1.7-5.1 4.5m-10.3 8.9c-5 1.2-9.5 3.2-10.4 9-.3 1.6-2.6 2.2-1.9 4.1m231.3 183.6V288c-1.2.3-2.6.3-3.3 1.2-2.3 3-5.5 3-8.7 3s-2.5 0-3 1.5m359.7.3c2.3 2.8 3.6 6.2 5.2 9.4m156.8 85.4c.5.3.8 1 1.5 1.2 3 .8 4.4 2.8 3.8 6M165 119.1c0 1.9.3 3.8-.4 5.6-1.8.5-4.2 0-4.9 2.6M956.6 197c2.8.9 2.4 3.2 1.4 4.8-1.1 1.7-1.7 3.3-1.4 5.3M631.5 463c1.3 2.7 3.9 6.9 4.5 10.3M293.2 228.1c-.4 3.6 2.5 4.4 4.9 5.6M456 458.1c0 2.3-1.1 3.3-3.4 3m145.2-180.9c0 1.8 1.3 3.4.8 5.2M135 106.8c-2.3.4-2.6-2.9-4.9-2.6M434.2 227c-.8 1.7-.7 3.2.8 4.5 1.2 1 1.6 2.3 1.5 3.8m-325.1 95.1c3.6 3.5 3.9 3.5 7.5.7m601.4 29c-2.8 2-5.3 13.7-7.1 16.4m-302.6-93.7c-1.7-.2-3.6.5-5.2-.4m622.1-149.1c-1.8 0-3.2 1.1-4.9 1.5" class="st0"/><path d="M586.5 393.6c2.6-.4 8.8 8 11 8.9m12-273.3c-1.5-.9-5.9-6-8-5.4-1.6.4-3.6-.5-5.2-1.3m58.8 20.2c0 1.6.3 3.3-.4 4.9M504 361.3c.3-1.2.7-2.5 2.2-2.4 1.2 0 1.8-.9 2.2-1.6 1.5-2.4 3.4-2.9 5.7-1.5M1173 60.3c.4 1.6 1.5 3.1 1.1 4.9M472.9 385.1c-2.2 1.6-5.1 2.7-3.4 6.4m442.1 219.4c-2.4 0-2.5 1.8-2.2 3.4.2 1.3 1.4.6 2.2.4m-313.1-136c2.9 1.7 2.5 5 3.8 7.5m3.6-233.5c-2.4 1.2-16.1 9.2-17.6 11.1m-14.1 60c-2.8 3.2-8.5 10.1-13.9 9.6-.6 0-2.4 4.3-2.7 4.9m354.8 11.2c-.2 4.2 2.9 5.1 6 6M598.1 207.1c-2.3-.3-2.6 1.8-3.3 3.1-.5.8-1 1.5-1.6 2.2m53.3 256.2c-2.4 2.2-4.3 5.4-8.2 4.9M942 313.1c0 1.9 4.4 16.4 5.4 17.8m-576.9-29.4c-.5 2.2-4.3 1.2-3.8 4.1-3.4 0-5-3-7.9-3.4M651 240.5c1.4 1.4 1.2 4.4 4.5 4.5v-2.7m201-19.4c1.3 1.6-.7 3-.4 4.5m-291 370.4c-1.4-.8-3-.2-4.5-.4M850.9 360c-.5 1.5-2.2 2.6-1.5 4.5m-199.7 85.9c-4 2.1-19.5 11.3-23.9 12.2m-119.9-100c-1 0-1.5-1.1-2.3-1.4-2-1-4.4.4-4.4 2.6s-1.2 2.6-2.7 3M630.8 351c-1.7.8-.9 2.5-1.5 3.8-.6 1.4-.7 3.2-2.3 4.1m30-77.2c1.2.7 1.2 1.8 1.1 3 0 1.3 2.5 4.5 3.7 5.3m-23.9-91.5c1.5.5 11.9 7.7 13.4 8.3m79.9 149.4c-.6 2.7-2.9 2.4-4.9 2.6-.9 0-1.6-.6-2.7.2-3.2 2.6-7 2.3-10.8 1.7m283.6-84.6c1.6 1.6-7 9.6-7.7 11M187.9 412.4c0 .6-.1 1.2.7 1.5 2.5 1.1 17.4 17.6 18.8 20.1m526.1-123.9c.6 1.4 1.7 2.5 2.7 4 .3 1.6-7.7 7.6-6.3 9.6M881.6 245c1 .9 1.8 2 3.2 2.7-1.2 1.9-.4 3.4 1 4.8m-747.4 94.7c0 3.8 1.4 6.3 5.2 7.7.9.3 1.3 3.1 2.7 4.3.9.8 1.8 2.2 2.6 0m639.7-83.9c5.5-.5 11-.5 16.5.7m-25.9-26.9c1 1.5 2.4 1.9 4.1 1.9" class="st0"/><path d="M589.1 252.1c.9.1 1.5 0 1.2 1.5-.4 2.1-2.5 8.9-1.7 11m47 209.5c1.4 3.8 9.7 16.5 9.2 20.8m214.3-52.5c-4.8 0-8.2 3.1-9.8 9m207.1-224.8c1.5.5 3 .3 4.5.4m-206.3 0c-1.6.8-2.9.2-4.1-.7m-343.1 34.4c-1.7 2-3.7.5-5.2-.1-1.2-.6-2.3-.4-3.4-.6m289.1 25.1c2.7 1.2 5.6 1.8 8.6 1.9 2.5 0 3.6 2.4 4.3 4.2.4 1 5.3 15.6 5 17m-158.2 3.1c.5 2.2 2.2 1 3.4 1.1 2.7.2 5.5-.2 7.9 1.6m-108 17.5c2.7 0 5.3 0 7.5 1.9m-143.3 11.2c-.5 1.2-.4 2.5-.4 3.7s-.5 2.7-2.3 2.8m-304.9 15.7c2-.8-1-11.2.9-10.6 1.6.5 2.8.2 4.1-.4m424.9 14.3c-3.4 1.6-6.3 3.9-9.4 6m-364.5-266c.5 2.9-1.7 5.1-2.2 7.7m-51.4-30.1c-3.7-1.3-6.3 1.4-9.4 2.6-.2 0 0 .5.4.7m487.9 357c0 1.4-7.8 15.8-7.7 17.3M505.4 87.1c-2.8 0-10 1.3-12.6 2.4M606 513.2c-1.3.8-2.8.2-4.1.4m9.7 17.2c-.3 1.9-1.8 1.5-3 1.5m8.6 7.8c-.2-1.5.8-3.6-1.5-4.1-1.5-.3-2.8.6-3.4 2.2m2.7-166.6c-1.8-2.2-4-2-6.4-1.1m104.6-83.2c-4.3.3-8.4 1.8-12.8 1.9m-109-213.6c-2.7-1.6-12.4-5.9-15.1-5m-436.8 42.9c1.6 1.4 1.8 4.8 5.3 3.4-.6-.8-.2-1.8-.8-2.6m846.8 158.8c.7 1.9 2.5 2 4.1 2.2 1.9.2 3.6.6 5.2 1.5m-896.2 54.7c2.3-1.8 4.8-.2 7.1-.4m585 77.2c-2 1.2-1.8 3.8-3.5 5.5-1.1 1-2.3.8-3.2 1.7m125.2 8.9c-.5 1.2-.4 2.5-.4 3.7m-102.7-51.7c-.3 2.8-1.3 5.2-3.4 7.1M564 282.4c-.6 1.1-.3 2.2-.4 3.4m-231 17.2c-.6 2 1.9 3.9.4 6M92.2 135.6c-.7.7-1.4 1.5-2.2 2.1.7 1.1 1 2.3 1.5 3.5m729 106c1.4 1.9 4.1 1.3 5.6 3m-711-177.9c-.3 1.5.4 2.5 2.2 2.8.5-.4.9-1.1.8-2m866.7 205.6c-.4 1.5 1.5 4.4 1.8 5.6M1122 84.7c-.7 1-.8 2.2-1.1 3.4M357.4 299.3c2.1 1 1.7 2 0 3M134.2 406.4c-.8 1-.2 2.3-.4 3.4m167-139.4c-1.1 0-2.3-.2-3.4.4m153.7 2.3c-.4 2.3-.7 4.6-1.5 6.7m127.5 102.6c.4 1.9-.6 3.7-.4 5.6m268.9-49.8c.5.9.3 2 .4 3m-53.6-103.3c-.5 1-.5 2 0 3M576 141.2c.4.5-4.2-15.1-3-15.2 1.6 0 12.9 23.3 13.4 24.4m16.2 131.7c-.2 1 .4 2.1-.4 3M923 220.7c-.5.9-6.5 23.7-6.5 24.7m-787.9 99.2c3 1.3 6.1 2.4 8.6 4.5m823.2-22.8c.7 1 .7 3.6 3 1.5m-271.2 67.8c-.6.8 1.5 2-.4 2.6M572.2 566.4c-.8 1.9-1.5 3.7-2.2 5.6-.6 1.5.3 2.8 1.5 3.3.9.4 1.7-.7 1.8-1.8M469.1 279.1v3m109.5 276.4h3m372.4-139c-1.1-.9-1.4-.3-1.5.8v2.6M627.4 532.3c-1.2.2-9.3-2.5-10.2-3.1m-31.4-192.1c0 1.4 2.1 1.2 2.2 2.6m321-31.8c.6.9 2.2-.4 2.6 1.1m-452.2-74.9c.5.7.4 1.5.4 2.2-2.2.5-1.4-2.8-3.4-2.6m322.8 13.1c.9.2 1.6 1 2.6.7M569.2 368.2c1.7 3.2 1.1 6.1-.8 9m44.7 102.3v2.6m-15 10.8c-1.4 1.1-3 1.7-4.5 2.6m-11.2-1.4c-.3.9.6 1.7.4 2.6M615 132.6c0 .9-.2 1.8.4 2.6M491.6 64.8c-.5.8-.3 1.7-.4 2.6m211.6 333c1.4 1.3 2.3 2.9 2.2 4.9 0 2 1.3 3.2 1.9 4.9M258.4 261.1c-1.2 1.5-2-.4-3-.4m251.2 43.5c-1.2 1.9-3.9 1.3-5.2 3m-373.9-24.4c-.3-.9-.9-1.6-1.9-1.9m452.6 108.7c.8.8.2 1.8.4 2.6m188.3-70.1c-3.5-.7-7-.3-10.5.4m-42 6c1.5.7 3.5 0 4.5 1.9m-151.5-73.1v2.6M585 419.5c-.9 0-1.8-.2-2.6.4M445.9 110.5c.5.8.3 1.7.4 2.6m-312.4 130c.4 2.4-1.4 1.6-2.6 1.9-2 .6-12.8-2.3-13.9 1.2m66.4-93c2 1.2 1.5 3.8 3 5.2m390.3 304.9c1.4 0 3-.6 4.1.7m-61.8-113.8c-2.3.3-4.4.8-4.5 3.7M594 541.3c3.1 1.4 9 .8 10.5-1.1m20.7-309.7c1.7 1.6 15.1 6.6 17.3 7m-211.4 46.9c.7 2.2 2.2 21 3.8 19.1m-292.4 48.2c0 1.5.1 3.1-.8 4.5m487.2 124c3.1.2 1.9 2.5 1.9 4.1s-.3 3-1.5 4.1M460.1 236.7c1.9 0 3.7.5 5.2 1.5 1 .6-.4.7-.4 1.1m-31 260c2.1-.6 1.5 1.5 2.2 2.2m509.3-124.3c-2.6 0-4.9 7.2-6 8.7m-255.2 34.2c.6-.7 3.3-4.3 4.2-4.8 1.8.6.5 1.6.5 2.4m-237.8-1.5c2.3-.4 9.6.2 11.9.6M121.1 136.7c1-.3 1.9-.9 3-.7m788.7 472.7c.4.2.5.5.4.7s-.2.4-.4.4m-24-65.2c-1.6.2-1.5-.8-1.5-1.9v-5.6c0-1.9.3-1.6 0-1.8-3.1-2.1-2.8-6.4-5.6-8.7-.5-.4-1.3-.8-1.1-1.5 1-3.7-.4-7.3-.5-10.9 0-2.6-.4-5-.7-7.5" class="st0"/></svg>